<?xml version="1.0" encoding="UTF-8"?>
<!DOCTYPE svg PUBLIC "-//W3C//DTD SVG 1.1//EN" "http://www.w3.org/Graphics/SVG/1.1/DTD/svg11.dtd">
<!-- Creator: CorelDRAW X7 -->
<svg xmlns="http://www.w3.org/2000/svg" xml:space="preserve" width="91.44mm" height="162.56mm" version="1.1" style="shape-rendering:geometricPrecision; text-rendering:geometricPrecision; image-rendering:optimizeQuality; fill-rule:evenodd; clip-rule:evenodd"
viewBox="0 0 9144 16256"
 xmlns:xlink="http://www.w3.org/1999/xlink">
 <defs>
  <style type="text/css">
   <![CDATA[
    .str0 {stroke:white;stroke-width:12.41}
    .fil0 {fill:black}
   ]]>
  </style>
 </defs>
 <g id="Camada_x0020_1">
  <metadata id="CorelCorpID_0Corel-Layer"/>
  <path class="fil0 str0" d="M42385 11140c-49,0 -68,21 -90,35 -17,11 -15,8 -43,8 -28,0 -18,-5 -35,-17 -22,-14 -48,-31 -98,-31 -50,0 -76,17 -97,31 -18,12 -30,19 -57,19 -28,0 -40,-7 -57,-19 -9,-6 -19,-12 -32,-18l12 -11c71,-71 98,-175 72,-271 -19,-71 1,-147 53,-199l46 -47 10 10c7,7 16,11 26,11 10,0 19,-4 26,-11l135 -135c15,-15 15,-38 0,-53l-28 -28 119 -91c8,-7 14,-17 14,-27 1,-11 -3,-22 -11,-29l-193 -194c-8,-8 -19,-12 -29,-11 -11,1 -21,6 -28,15l-91 118 -28 -28c-14,-14 -38,-14 -53,0l-134 135c-15,15 -15,38 0,53l9 9 -46 47c-52,51 -128,72 -199,53 -97,-27 -201,1 -272,72l-624 624c-20,-12 -45,-25 -87,-25 -50,0 -77,17 -98,31 -18,12 -29,19 -57,19 -27,0 -39,-7 -57,-19 -21,-14 -48,-31 -97,-31 -21,0 -38,17 -38,38 0,20 17,37 38,37 27,0 39,8 57,19 21,14 48,31 97,31 50,0 76,-17 98,-31 17,-11 29,-19 57,-19 13,0 23,2 32,5l-105 105c-27,27 -42,62 -42,100 0,38 15,73 42,100l401 402c28,27 64,41 100,41 36,0 73,-14 100,-41l712 -712c24,1 35,8 52,19 21,14 48,31 98,31 49,0 76,-17 97,-31 18,-11 30,-19 57,-19 28,0 39,8 57,19 21,14 26,29 76,29 50,0 56,-9 78,-23 17,-11 28,-20 55,-20 21,0 38,-17 38,-37 0,-21 -17,-38 -38,-38zm-251 -984l133 134 -92 71 -113 -113 72 -92zm-179 91l222 222 -82 81 -222 -222 82 -81zm-616 342c39,-39 92,-60 146,-60 17,0 35,2 53,7 97,26 201,-2 272,-72l46 -47 150 150 -46 47c-71,71 -99,175 -72,271 19,71 -1,147 -53,199l-53 53c-32,5 -53,18 -69,29 -18,12 -30,19 -57,19 -28,0 -40,-7 -57,-19 -15,-9 -32,-20 -57,-26l244 -245c0,0 0,0 0,0 41,-41 50,-78 50,-136 0,-21 -17,-37 -37,-37 -21,0 -38,16 -38,37 0,38 -1,56 -28,83 -27,27 -62,42 -100,42l-1 0c-4,0 -8,0 -12,-1l93 -92c7,-7 11,-16 11,-26 0,-72 -59,-130 -130,-130 -41,0 -69,6 -98,35 0,0 0,0 0,0l-504 503c-3,-2 -7,-4 -11,-7 -21,-14 -48,-31 -98,-31 -49,0 -76,17 -97,31 -14,9 -25,16 -43,18l596 -595zm-326 669c8,1 16,2 25,2 50,0 76,-17 97,-31 18,-11 30,-19 57,-19 28,0 40,8 57,19 17,11 37,24 69,29l-309 308c-27,27 -63,42 -101,42l0 0c-21,0 -41,-6 -58,-18 -30,-20 -48,-53 -48,-88 0,-21 8,-41 23,-55l188 -189zm391 -92c-18,12 -30,19 -57,19 -28,0 -39,-7 -57,-19 -21,-14 -48,-31 -98,-31 -32,0 -54,7 -72,16l336 -335c9,45 36,86 76,112 26,17 55,28 85,30l-199 199c-5,3 -10,6 -14,9zm112 -378c0,-21 9,-40 23,-55 15,-15 34,-23 55,-23 25,0 47,18 53,41l-96 95c-16,-19 -35,-33 -35,-58zm-466 1081c-12,12 -29,19 -47,19 -17,0 -34,-7 -47,-19l-401 -402c-13,-12 -20,-29 -20,-47 0,-18 7,-34 20,-47l121 -121c14,5 31,8 53,8 50,0 76,-17 98,-31 17,-11 29,-19 56,-19 27,0 39,7 55,18l-166 166c-29,29 -45,67 -45,108 0,60 30,117 81,151 30,19 64,30 100,30l1 0c57,0 112,-23 153,-64l401 -401c10,-5 21,-8 38,-8 28,0 40,8 57,19 22,14 48,31 98,31 1,0 2,0 3,0l-609 609z"/>
 </g>
</svg>
