<?xml version="1.0" encoding="UTF-8"?>
<!DOCTYPE svg PUBLIC "-//W3C//DTD SVG 1.1//EN" "http://www.w3.org/Graphics/SVG/1.1/DTD/svg11.dtd">
<!-- Creator: CorelDRAW X7 -->
<svg xmlns="http://www.w3.org/2000/svg" xml:space="preserve" width="91.44mm" height="162.56mm" version="1.1" style="shape-rendering:geometricPrecision; text-rendering:geometricPrecision; image-rendering:optimizeQuality; fill-rule:evenodd; clip-rule:evenodd"
viewBox="0 0 9144 16256"
 xmlns:xlink="http://www.w3.org/1999/xlink">
 <defs>
  <style type="text/css">
   <![CDATA[
    .str1 {stroke:white;stroke-width:21.58}
    .str0 {stroke:white;stroke-width:21.58}
    .fil0 {fill:black}
   ]]>
  </style>
 </defs>
 <g id="Camada_x0020_1">
  <metadata id="CorelCorpID_0Corel-Layer"/>
  <g id="_2091358488240">
   <path class="fil0 str0" d="M26551 10763c0,0 0,0 0,0 -29,-70 -109,-103 -178,-74 -33,14 -59,40 -73,74 -14,33 -14,70 0,103 14,34 40,60 73,74 17,7 35,10 52,10 18,0 35,-3 52,-10 69,-29 102,-108 74,-177zm-102 109c-15,6 -32,6 -47,0 -16,-7 -28,-19 -34,-34 -6,-15 -6,-32 0,-47 6,-15 18,-27 34,-34 7,-3 15,-4 23,-4 24,0 47,14 57,38 13,31 -2,68 -33,81z"/>
   <path class="fil0 str0" d="M26172 10202c-164,68 -291,195 -359,359 -68,163 -68,344 0,507 68,163 195,291 359,359 81,33 167,50 253,50 86,0 172,-17 254,-50 337,-140 498,-529 358,-866 -140,-338 -528,-498 -865,-359zm826 746l-309 -128c0,-4 0,-7 0,-11l309 -128c21,90 20,181 0,267zm-748 -61c-40,-97 6,-208 103,-248 23,-10 48,-14 72,-14 74,0 145,44 176,117 19,47 19,98 0,145 -20,47 -56,83 -103,103 -97,40 -208,-6 -248,-103zm-369 153c-2,-7 -5,-14 -8,-21l301 -124c2,7 5,14 7,20 3,7 6,14 10,21l-301 124c-3,-7 -6,-13 -9,-20zm-29 -359l310 128c-1,4 -1,7 0,11l-310 128c-21,-88 -21,-179 0,-267zm38 -112l301 124c-7,14 -12,27 -17,41l-301 -124c3,-7 6,-14 8,-21 3,-7 6,-13 9,-20zm1079 20c3,7 5,14 8,21l-301 124c-2,-7 -4,-14 -7,-20 -3,-7 -6,-14 -10,-21l301 -124c3,7 6,13 9,20zm-464 -26l125 -300c13,5 27,11 41,17l-125 300c-13,-6 -27,-12 -41,-17zm164 352c3,-6 5,-13 7,-20l301 124c-5,14 -11,27 -17,41l-301 -124c4,-7 7,-14 10,-21zm256 -412l-310 129c-2,-3 -5,-5 -7,-8l128 -309c75,47 140,110 189,188zm-367 -261l-128 309c-3,0 -7,0 -10,0l-128 -310c44,-10 88,-15 132,-15 46,0 91,5 134,16zm-337 21l124 300c-7,2 -14,5 -21,8 -7,3 -13,6 -20,9l-124 -300c6,-3 13,-6 20,-9 7,-3 14,-6 21,-8zm-107 52l128 309c-2,3 -5,5 -7,8l-310 -129c48,-76 112,-141 189,-188zm-189 811l310 -129c2,3 5,5 7,8l-128 309c-77,-47 -141,-112 -189,-188zm255 223l124 -300c7,3 13,6 20,9 7,3 14,6 21,8l-124 300c-7,-2 -14,-5 -21,-8 -7,-3 -14,-6 -20,-9zm112 39l128 -310c2,0 3,0 5,0 2,0 4,0 5,0l129 310c-88,20 -179,20 -267,0zm338 -22l-125 -300c7,-3 14,-5 21,-8 7,-3 14,-6 20,-9l125 300c-7,3 -14,6 -21,9 -6,3 -13,6 -20,8zm106 -52l-128 -309c3,-3 5,-5 7,-8l310 128c-47,75 -111,141 -189,189z"/>
   <path class="fil0 str1" d="M27364 11099l-136 -56c43,-150 43,-307 0,-457l136 -56c49,-21 72,-77 52,-126 -10,-24 -28,-42 -52,-52 -24,-10 -50,-10 -74,0l-136 56c-75,-136 -187,-247 -323,-322l57 -137c9,-23 9,-49 0,-73 -10,-24 -29,-42 -52,-52 -49,-20 -106,3 -126,52l-56 136c-150,-43 -307,-43 -457,0l-57 -136c-20,-49 -76,-72 -125,-52 -49,20 -72,76 -52,125l56 137c-139,77 -249,190 -322,323l-137 -57c-24,-10 -50,-10 -73,0 -24,10 -43,28 -52,52 -10,24 -10,50 0,74 9,23 28,42 52,52l136 56c-42,146 -44,304 0,457l-136 56c-49,21 -73,77 -52,126 15,37 51,59 88,59 13,0 25,-2 37,-7l136 -57c76,137 187,248 323,323l-56 137c-20,48 3,105 52,125 12,5 24,7 37,7 37,0 73,-22 88,-59l57 -136c75,21 151,32 228,32 77,0 154,-11 229,-32l56 136c10,24 28,42 52,52 12,5 24,7 37,7 12,0 25,-2 37,-7 23,-10 42,-28 52,-52 9,-24 9,-50 0,-73l-57 -137c136,-75 248,-186 323,-323l136 57c12,5 25,7 37,7 38,0 74,-22 89,-59 20,-49 -3,-105 -52,-126zm-45 -679c11,-4 24,1 29,12 4,12 -1,25 -12,29l-132 55c-2,-7 -5,-14 -8,-21 -3,-7 -6,-13 -9,-20l132 -55zm-541 -516c3,-5 7,-10 12,-12 6,-2 12,-2 17,0 6,2 10,7 12,12 3,6 3,12 0,17l-54 131c-7,-3 -14,-5 -21,-8 -6,-3 -13,-6 -20,-9l54 -131zm-747 17c-2,-5 -2,-11 0,-17 2,-5 7,-10 12,-12 11,-5 24,1 29,12l55 131c-7,3 -14,6 -21,9 -7,3 -14,5 -20,8l-55 -131zm-516 540c-6,-2 -10,-6 -12,-12 -2,-5 -2,-11 0,-17 5,-11 18,-16 29,-12l132 55c-7,13 -12,27 -17,41l-132 -55zm17 748c-11,4 -24,-1 -29,-12 -2,-6 -2,-12 0,-17 2,-6 6,-10 12,-12l131 -55c3,7 6,14 8,21 3,7 6,13 9,20l-131 55zm540 516c-5,11 -18,16 -29,12 -11,-5 -17,-18 -12,-29l55 -131c6,3 13,5 20,8 7,3 14,6 21,8l-55 132zm747 -17c5,11 0,24 -12,29 -11,4 -24,-1 -29,-12l-54 -132c7,-2 14,-5 20,-8 7,-3 14,-5 21,-9l54 132zm-103 -191c-187,78 -394,78 -582,0 -187,-78 -334,-224 -411,-412 -161,-387 24,-833 411,-993 94,-39 193,-58 291,-58 99,0 197,19 291,58 188,78 334,224 412,411 77,188 77,395 0,582 -78,188 -224,334 -412,412zm632 -320c-5,11 -18,16 -29,12l-132 -55c3,-7 6,-13 9,-20 3,-7 6,-14 8,-21l132 55c11,4 16,17 12,29z"/>
  </g>
 </g>
</svg>
