<?xml version="1.0" encoding="UTF-8"?>
<!DOCTYPE svg PUBLIC "-//W3C//DTD SVG 1.1//EN" "http://www.w3.org/Graphics/SVG/1.1/DTD/svg11.dtd">
<!-- Creator: CorelDRAW X7 -->
<svg xmlns="http://www.w3.org/2000/svg" xml:space="preserve" width="91.44mm" height="162.56mm" version="1.1" style="shape-rendering:geometricPrecision; text-rendering:geometricPrecision; image-rendering:optimizeQuality; fill-rule:evenodd; clip-rule:evenodd"
viewBox="0 0 9144 16256"
 xmlns:xlink="http://www.w3.org/1999/xlink">
 <defs>
  <style type="text/css">
   <![CDATA[
    .fil0 {fill:black}
   ]]>
  </style>
 </defs>
 <g id="Camada_x0020_1">
  <metadata id="CorelCorpID_0Corel-Layer"/>
  <g id="_2091147376080">
   <path class="fil0" d="M65546 20488l-1046 0c-224,0 -407,-181 -407,-402l0 -1033c0,-222 183,-402 407,-402l1046 0c224,0 407,180 407,402l0 1033c0,221 -183,402 -407,402zm-1046 -1730c-164,0 -298,133 -298,295l0 1033c0,162 134,294 298,294l1046 0c164,0 298,-132 298,-294l0 -1033c0,-162 -134,-295 -298,-295l-1046 0z"/>
   <path class="fil0" d="M65023 20123c-309,0 -561,-248 -561,-554 0,-305 252,-554 561,-554 309,0 561,249 561,554 0,306 -252,554 -561,554zm0 -1000c-249,0 -452,200 -452,446 0,246 203,447 452,447 249,0 452,-201 452,-447 0,-246 -203,-446 -452,-446z"/>
   <path class="fil0" d="M65596 19074c-12,0 -24,-3 -36,-10 -16,-10 -28,-25 -33,-43 -5,-19 -3,-38 7,-54 10,-17 25,-29 44,-34 19,-5 38,-2 55,7 16,10 28,25 33,44 5,18 3,37 -7,54 -13,23 -38,36 -63,36z"/>
  </g>
 </g>
</svg>
