<?xml version="1.0" encoding="UTF-8"?>
<!DOCTYPE svg PUBLIC "-//W3C//DTD SVG 1.1//EN" "http://www.w3.org/Graphics/SVG/1.1/DTD/svg11.dtd">
<!-- Creator: CorelDRAW X7 -->
<svg xmlns="http://www.w3.org/2000/svg" xml:space="preserve" width="91.44mm" height="162.56mm" version="1.1" style="shape-rendering:geometricPrecision; text-rendering:geometricPrecision; image-rendering:optimizeQuality; fill-rule:evenodd; clip-rule:evenodd"
viewBox="0 0 9144 16256"
 xmlns:xlink="http://www.w3.org/1999/xlink">
 <defs>
  <style type="text/css">
   <![CDATA[
    .fil0 {fill:#1A1A1A}
    .fil1 {fill:white;fill-rule:nonzero}
   ]]>
  </style>
 </defs>
 <g id="Camada_x0020_1">
  <metadata id="CorelCorpID_0Corel-Layer"/>
  <g id="_2091358487568">
   <g>
    <path class="fil0" d="M33481 11465c-1,-4 -3,-8 -4,-12 -2,-4 -4,-8 -6,-11 -1,-2 -3,-4 -4,-6 -1,-1 -3,-3 -4,-4 -2,-2 -4,-3 -5,-5 -2,-1 -4,-2 -5,-3 -4,-3 -8,-5 -12,-6 -4,-2 -8,-3 -12,-4 -2,-1 -4,-1 -7,-1 -4,0 -8,0 -13,0 -2,0 -4,0 -6,1 -4,1 -8,2 -12,4 -4,1 -8,3 -12,6 -1,1 -3,2 -5,3 -2,2 -3,3 -5,5 -12,12 -19,29 -19,46 0,2 0,4 0,6 1,2 1,5 1,7 1,4 2,8 4,12 2,4 4,8 6,11 1,2 3,4 4,5 1,2 3,4 4,5 2,2 3,3 5,4 2,2 4,3 5,4 4,2 8,5 12,6 4,2 8,3 12,4 2,0 4,1 6,1 3,0 5,0 7,0 2,0 4,0 6,0 3,0 5,-1 7,-1 4,-1 8,-2 12,-4 4,-1 8,-4 12,-6 1,-1 3,-2 5,-4 1,-1 3,-2 5,-4 1,-1 3,-3 4,-5 1,-1 3,-3 4,-5 2,-3 4,-7 6,-11 1,-4 3,-8 4,-12 0,-2 0,-5 1,-7 0,-2 0,-4 0,-6 0,-2 0,-4 0,-7 -1,-2 -1,-4 -1,-6z"/>
    <path id="1" class="fil1" d="M33467 11457l20 -8 0 0 0 0 0 1 1 0 0 1 0 0 0 0 0 1 0 0 0 1 1 0 0 1 0 0 0 0 0 1 0 0 0 1 1 0 0 1 0 0 0 1 0 0 0 1 0 0 0 0 1 1 0 0 0 1 0 0 0 1 0 0 0 0 0 1 -21 4 0 0 0 0 0 -1 0 0 0 0 -1 -1 0 0 0 0 0 -1 0 0 0 0 0 -1 0 0 0 0 0 -1 0 0 -1 0 0 -1 0 0 0 0 0 -1 0 0 0 0 0 -1 0 0 0 0 -1 0 0 -1 0 0 0 0 0 -1 0 0 0 0zm20 -8l0 0 0 0 0 0zm-25 -1l18 -13 0 1 0 0 0 0 1 1 0 0 0 1 0 0 1 0 0 1 0 0 0 1 1 0 0 0 0 1 0 0 0 1 1 0 0 0 0 1 0 0 1 1 0 0 0 1 0 0 0 0 1 1 0 0 0 1 0 0 0 0 1 1 0 0 0 1 -20 8 0 0 0 -1 -1 0 0 0 0 0 0 -1 0 0 0 0 0 -1 -1 0 0 0 0 0 0 -1 0 0 0 0 -1 -1 0 0 0 0 0 -1 0 0 0 0 -1 -1 0 0 0 0 0 0 0 -1 0 0 -1 0 0 -1 0 0 0 0 0 0 0 0zm18 -13l0 1 0 -1 0 0zm-22 8l17 -13 0 0 0 0 1 0 0 0 0 0 0 1 0 0 0 0 1 0 0 0 0 1 0 0 0 0 0 0 0 0 1 0 0 1 0 0 0 0 0 0 0 0 0 0 0 1 1 0 0 0 0 0 0 0 0 1 0 0 0 0 1 0 0 0 0 0 -18 13 0 0 0 -1 0 0 -1 0 0 0 0 0 0 0 0 -1 0 0 0 0 0 0 0 0 -1 0 0 0 0 0 0 -1 0 0 0 0 0 0 0 0 0 0 -1 -1 0 0 0 0 0 0 0 0 0 0 0 0 0 0 0 0 0 0 -1 -1 0 0zm17 -13l0 0 0 -1 0 1zm-20 9l15 -15 0 0 0 0 0 0 1 1 0 0 0 0 0 0 0 0 1 0 0 1 0 0 0 0 0 0 0 0 0 0 1 1 0 0 0 0 0 0 0 0 0 0 1 1 0 0 0 0 0 0 0 0 0 1 1 0 0 0 0 0 0 0 0 0 0 1 -17 13 0 0 0 0 0 0 0 0 0 0 0 0 0 0 0 -1 -1 0 0 0 0 0 0 0 0 0 0 0 0 0 0 -1 0 0 0 0 -1 0 0 0 0 0 0 0 0 0 0 -1 0 0 0 0 0 0 -1 0 0 0 0 0 0 0 0 -1 0 0zm0 0l0 0 0 0 0 0zm-4 -3l14 -17 0 0 0 0 0 0 0 1 0 0 1 0 0 0 0 0 0 0 0 0 0 1 1 0 0 0 0 0 0 0 0 0 1 1 0 0 0 0 0 0 0 0 0 0 1 1 0 0 0 0 0 0 0 0 0 0 1 0 0 1 0 0 0 0 0 0 -15 15 0 0 0 0 -1 0 0 0 0 0 0 0 0 0 0 0 0 -1 0 0 -1 0 0 0 0 0 0 0 0 0 0 0 0 -1 0 0 0 0 0 0 -1 0 0 0 0 0 0 0 0 0 0 0 -1 -1 0 0 0 0 0 0 0 0 0 0 0 0zm0 0l0 0 0 0 0 0zm-4 -3l12 -18 0 0 0 0 0 0 0 0 0 0 1 0 0 0 0 1 0 0 0 0 1 0 0 0 0 0 0 0 0 1 1 0 0 0 0 0 0 0 0 0 1 0 0 1 0 0 0 0 0 0 0 0 1 0 0 1 0 0 0 0 0 0 1 0 0 0 -14 17 -1 -1 0 0 0 0 0 0 0 0 0 0 0 0 0 0 -1 0 0 0 0 0 0 -1 0 0 0 0 0 0 0 0 -1 0 0 0 0 0 0 0 0 0 0 -1 0 0 0 0 -1 0 0 0 0 0 0 0 0 0 0 0 0 0 0 0 0 0zm12 -18l0 0 -3 -2 3 2zm-22 13l8 -20 0 0 1 0 0 0 1 0 0 0 1 1 0 0 0 0 1 0 0 0 1 1 0 0 1 0 0 0 0 0 1 1 0 0 1 0 0 0 0 1 1 0 0 0 1 0 0 0 0 1 1 0 0 0 1 0 0 1 0 0 1 0 0 0 1 1 -12 18 -1 -1 0 0 0 0 -1 0 0 0 0 0 0 -1 -1 0 0 0 0 0 -1 0 0 0 0 -1 0 0 -1 0 0 0 0 0 -1 0 0 -1 0 0 -1 0 0 0 0 0 -1 0 0 0 0 -1 0 0 -1 0 0 0 0 0 -1 0 0 0 0 0zm8 -20l0 0 0 0 0 0zm-18 16l4 -21 0 0 0 0 1 1 0 0 1 0 0 0 1 0 0 0 1 0 0 0 1 0 0 1 0 0 1 0 0 0 1 0 0 0 1 0 0 0 1 1 0 0 1 0 0 0 0 0 1 0 0 0 1 1 0 0 1 0 0 0 0 0 1 0 0 1 -8 20 0 -1 -1 0 0 0 0 0 -1 0 0 0 0 0 0 0 -1 0 0 -1 -1 0 0 0 0 0 0 0 -1 0 0 0 0 0 -1 0 0 0 0 -1 -1 0 0 0 0 0 -1 0 0 0 0 0 -1 0 0 0 0 0 -1 0 0 0 0 -1 0 0zm4 -21l0 0 0 0 0 0zm-10 21l2 -22 0 0 1 0 0 0 0 0 0 0 1 0 0 0 0 0 0 0 1 0 0 0 0 0 0 1 1 0 0 0 0 0 0 0 0 0 1 0 0 0 0 0 1 0 0 0 0 0 0 0 0 0 1 0 0 0 0 0 0 0 1 0 0 0 0 0 -4 21 -1 0 0 0 0 0 0 0 0 0 0 0 0 0 -1 0 0 0 0 0 0 0 0 0 0 0 -1 0 0 0 0 0 0 0 0 0 -1 0 0 0 0 0 0 0 0 0 0 0 -1 0 0 0 0 0 0 0 0 0 0 0 0 0 -1 0 0 0zm0 0l0 0 -1 0 1 0zm-11 0l-2 -22 0 0 1 0 0 0 1 0 0 0 1 0 0 0 1 0 0 0 1 0 0 0 0 0 1 0 1 0 0 0 1 0 0 0 0 0 1 0 0 0 1 0 0 0 1 0 0 0 1 0 0 0 1 0 0 0 1 0 0 0 1 0 0 0 0 0 -2 22 0 0 0 0 -1 0 0 0 0 0 -1 0 0 -1 0 0 -1 0 0 0 0 0 -1 0 0 0 0 0 -1 0 0 0 0 0 -1 0 0 0 0 0 -1 0 0 0 -1 0 0 0 0 0 0 1 -1 0 0 0 0 0 -1 0 0 0 0 0 -1 0zm1 0l-1 0 1 0 0 0zm-6 0l-4 -21 0 0 0 0 0 0 1 0 0 0 0 0 0 0 1 0 0 0 0 0 0 0 0 0 1 0 0 0 0 0 0 0 1 0 0 0 0 0 0 0 0 0 1 -1 0 0 0 0 0 0 1 0 0 0 0 0 1 0 0 0 0 0 0 0 0 0 2 22 0 0 0 0 0 0 0 0 0 0 0 0 -1 0 0 0 0 0 0 0 0 0 0 0 -1 0 0 0 0 0 0 0 0 0 -1 0 0 0 0 0 0 0 0 0 0 0 0 0 -1 0 0 0 0 0 0 0 0 0 0 0 -1 0 0 0 0 0zm-4 -21l0 0 0 0 0 0zm-6 25l-9 -20 1 0 0 -1 0 0 1 0 0 0 1 0 0 0 1 -1 0 0 1 0 0 0 0 0 1 0 0 0 1 -1 0 0 1 0 0 0 0 0 1 0 0 0 1 0 0 -1 1 0 0 0 1 0 0 0 1 0 0 0 0 0 1 0 0 -1 1 0 4 21 0 1 0 0 -1 0 0 0 0 0 -1 0 0 0 -1 0 0 0 0 0 0 0 -1 0 0 1 0 0 -1 0 0 0 0 0 -1 0 0 0 0 0 -1 0 0 0 0 1 -1 0 0 0 0 0 -1 0 0 0 0 0 -1 0 0 1 0 0 0 0zm-9 -20l1 0 0 0 -1 0zm-1 25l-12 -18 0 0 1 -1 0 0 0 0 1 0 0 -1 1 0 0 0 0 0 1 -1 0 0 1 0 0 0 0 -1 1 0 0 0 1 0 0 0 1 -1 0 0 0 0 1 0 0 0 1 -1 0 0 0 0 1 0 0 0 1 -1 0 0 1 0 0 0 0 0 9 20 0 0 -1 0 0 0 0 0 -1 0 0 0 0 1 -1 0 0 0 0 0 0 0 -1 0 0 0 0 1 -1 0 0 0 0 0 -1 0 0 0 0 1 -1 0 0 0 0 0 0 0 -1 0 0 1 0 0 -1 0 0 0 0 0 0 0 -1 1 0 0zm-4 3l-14 -17 0 0 0 0 0 0 1 0 0 -1 0 0 0 0 0 0 1 0 0 0 0 0 0 0 0 -1 1 0 0 0 0 0 0 0 0 0 1 0 0 -1 0 0 0 0 0 0 0 0 1 0 0 0 0 -1 0 0 1 0 0 0 0 0 0 0 0 0 12 18 0 0 0 0 0 0 0 0 0 0 0 0 -1 0 0 0 0 0 0 0 0 1 0 0 0 0 -1 0 0 0 0 0 0 0 0 0 0 1 0 -1 0 1 -1 0 0 0 0 0 0 0 0 0 0 0 -1 0 0 0 0 0 0 1 0 0 0 0zm0 0l0 0 0 0 0 0zm-4 3l-15 -15 -1 0 1 0 0 0 0 0 0 -1 0 0 1 0 0 0 0 0 0 0 0 0 0 -1 1 0 0 0 0 0 0 0 0 0 0 -1 1 0 0 0 0 0 0 0 0 0 1 -1 0 0 0 0 0 0 0 0 0 0 1 0 0 -1 0 0 0 0 14 17 0 0 0 0 0 0 0 0 -1 0 0 1 0 0 0 -1 0 1 0 0 0 0 -1 0 0 0 0 0 0 0 0 1 0 0 0 0 0 0 0 0 -1 0 0 0 0 0 0 1 0 0 0 0 0 0 -1 0 0 0 0 0 0 0 0 0 0 0zm0 0l0 0 0 0 0 0zm-16 39l-22 0 0 0 0 -2 0 -2 0 -2 0 -2 1 -1 0 -2 0 -2 1 -2 0 -2 0 -2 1 -1 0 -2 1 -2 1 -2 0 -1 1 -2 1 -2 0 -2 1 -1 1 -2 1 -2 1 -1 1 -2 1 -1 1 -2 1 -1 1 -2 1 -1 2 -2 1 -1 1 -2 2 -1 15 15 -1 1 -1 1 -1 1 -1 1 0 1 -1 1 -1 2 -1 1 -1 1 0 1 -1 1 -1 1 0 1 -1 2 0 1 -1 1 0 1 -1 2 0 1 -1 1 0 1 0 2 -1 1 0 1 0 2 -1 1 0 1 0 2 0 1 0 1 0 2 0 1 0 0zm0 5l-22 2 0 1 0 -1 0 0 0 0 0 0 0 -1 0 0 0 0 0 0 0 0 0 -1 0 0 0 0 0 -1 0 0 0 0 0 0 0 -1 0 0 0 0 0 0 0 -1 0 0 0 0 0 0 0 0 0 -1 0 0 0 0 0 0 0 -1 0 0 0 0 22 0 0 0 0 0 0 0 0 0 0 1 0 0 0 0 0 0 0 0 0 1 0 0 0 0 0 0 0 0 0 0 0 1 0 -1 0 1 0 0 0 0 0 0 0 1 0 -1 0 1 0 0 0 0 0 0 0 0 0 1 0 0 0 0 0 0 0 0zm0 0l0 0 0 0 0 0zm1 6l-21 4 0 0 0 0 0 0 -1 -1 0 0 0 0 0 -1 0 0 0 0 0 0 0 -1 0 0 0 0 0 0 0 -1 0 0 0 0 0 0 0 0 0 -1 0 0 0 0 0 0 0 -1 0 0 0 0 0 0 0 -1 0 0 -1 0 0 0 0 0 0 -1 22 -2 0 0 0 1 0 0 0 0 0 0 0 0 0 0 0 1 0 0 0 0 0 0 0 0 0 1 0 -1 0 1 0 0 1 0 0 0 0 0 0 0 0 1 0 0 0 0 0 0 0 0 0 1 0 0 0 0 0 0 0 0 0 0 0 0 0 1zm0 -1l0 1 0 0 0 -1zm3 11l-20 8 0 0 0 0 0 -1 -1 0 0 -1 0 0 0 -1 0 0 0 -1 -1 0 0 0 0 -1 0 0 0 -1 0 0 0 -1 -1 0 0 0 0 -1 0 0 0 -1 0 0 0 -1 -1 0 0 -1 0 0 0 -1 0 0 0 0 0 -1 0 0 0 -1 0 0 21 -4 0 0 0 0 0 1 0 0 0 0 0 1 0 0 1 0 0 0 0 1 0 0 0 0 0 1 0 0 0 0 0 1 0 0 0 0 1 1 0 0 0 0 0 1 0 0 0 0 0 1 0 0 0 0 1 0 0 1 0 0 0 0 0 1 0 0zm0 0l0 0 0 0 0 0zm5 9l-18 12 0 0 0 0 -1 -1 0 0 0 0 0 -1 -1 0 0 -1 0 0 0 0 0 -1 -1 0 0 -1 0 0 0 0 -1 -1 0 0 0 -1 0 0 -1 -1 0 0 0 0 0 -1 0 0 -1 -1 0 0 0 0 0 -1 0 0 -1 -1 0 0 0 -1 0 0 20 -8 0 0 0 0 1 1 0 0 0 0 0 0 0 1 0 0 0 1 0 0 1 0 0 0 0 1 0 0 0 0 0 1 1 0 0 0 0 0 0 1 0 0 0 0 1 1 0 0 0 0 0 0 0 1 0 0 1 0 0 1 0 0 0 0 0 0zm-18 12l0 0 0 1 0 -1zm21 -8l-17 14 1 0 -1 0 0 0 0 0 0 -1 0 0 0 0 0 0 -1 0 0 -1 0 0 0 0 0 0 0 0 -1 -1 0 0 0 0 0 0 0 0 0 0 -1 -1 0 0 0 0 0 0 0 0 0 -1 0 0 0 0 0 0 -1 0 0 0 0 -1 0 0 18 -12 0 0 0 0 0 1 0 -1 1 1 0 0 0 0 0 0 0 0 0 0 0 1 0 0 0 0 0 0 1 0 0 0 0 0 0 1 0 0 0 0 0 0 0 0 0 0 0 0 1 0 0 1 0 0 0 0 0 0 0 0 0 0 0 0 0 0zm0 0l0 0 0 0 0 0zm4 4l-15 16 0 0 0 0 -1 -1 0 0 0 0 0 0 0 0 0 0 -1 -1 0 0 0 0 0 0 0 0 -1 -1 0 0 0 0 0 0 0 0 0 0 -1 -1 0 0 0 0 0 0 0 0 0 0 -1 -1 0 0 0 0 0 0 0 0 0 -1 0 0 -1 0 17 -14 0 1 1 0 0 0 0 0 0 0 0 0 0 0 0 0 0 1 1 0 0 0 0 0 0 0 0 0 0 0 0 1 0 0 0 0 0 0 1 0 0 0 0 0 0 0 0 0 0 0 0 1 0 0 1 0 0 0 0 0 0 0 0 0 0 0zm0 0l0 0 0 0 0 0zm4 4l-14 17 0 0 0 0 0 -1 0 0 -1 0 0 0 0 0 0 0 0 -1 -1 0 0 0 0 0 0 0 0 0 0 0 -1 -1 0 0 0 0 0 0 0 0 0 0 -1 -1 0 0 0 0 0 0 0 0 0 0 -1 -1 0 0 0 0 0 0 0 0 0 0 15 -16 0 1 0 0 0 0 0 0 1 0 0 0 0 0 0 0 0 0 0 0 0 1 1 0 0 0 0 0 0 0 0 0 0 0 0 1 0 0 0 0 1 0 0 0 0 0 0 0 0 0 0 0 0 0 1 1 0 0 0 0 0 0 0 0 0 0zm-14 17l0 0 1 0 -1 0zm18 -14l-12 18 0 0 0 0 0 0 0 0 -1 0 0 -1 0 0 0 0 0 0 -1 0 0 0 0 0 0 0 0 -1 0 0 -1 0 0 0 0 0 0 0 0 0 -1 -1 0 0 0 0 0 0 0 0 0 0 -1 0 0 -1 0 0 0 0 0 0 -1 0 0 0 14 -17 0 0 0 0 0 0 0 0 1 0 0 1 0 0 0 0 0 0 0 0 0 0 1 0 0 0 0 0 0 1 0 0 0 0 0 0 1 0 0 0 0 0 0 0 0 1 0 -1 0 1 1 0 0 0 0 0 0 0 0 0 0 0 0 0 0 0zm-12 18l0 0 0 0 0 0zm22 -13l-9 20 1 0 -1 0 0 0 -1 0 0 -1 -1 0 0 0 0 0 -1 0 0 -1 -1 0 0 0 -1 0 0 0 0 -1 -1 0 0 0 -1 0 0 0 -1 -1 0 0 0 0 -1 0 0 -1 -1 0 0 0 0 0 -1 -1 0 0 0 0 -1 0 0 -1 -1 0 12 -18 0 0 1 0 0 1 0 0 1 0 0 0 0 0 1 1 0 0 0 0 1 0 0 0 0 0 0 1 1 0 0 0 0 0 0 0 1 0 0 1 0 0 1 0 0 0 0 0 1 0 0 0 0 1 1 0 0 0 0 0 1 0 0 0 0 0zm0 0l0 0 0 0 0 0zm10 3l-4 21 0 0 -1 0 0 0 0 0 -1 0 0 0 -1 0 0 0 -1 0 0 0 -1 -1 0 0 -1 0 0 0 0 0 -1 0 0 0 -1 -1 0 0 -1 0 0 0 -1 0 0 0 0 0 -1 -1 0 0 -1 0 0 0 -1 0 0 0 -1 -1 0 0 -1 0 9 -20 0 0 1 0 0 1 0 0 0 0 1 0 0 0 0 0 1 0 0 0 0 0 1 1 0 0 0 0 1 0 0 0 0 0 1 0 0 0 0 0 0 0 1 1 0 0 1 0 0 0 0 0 1 0 0 0 0 0 0 0 1 0 0 0 0 0zm0 0l0 0 0 0 0 0zm6 1l-3 22 0 0 0 0 0 0 0 0 0 -1 -1 0 0 0 0 0 0 0 -1 0 0 0 0 0 0 0 -1 0 0 0 0 0 0 0 -1 0 0 0 0 0 0 0 -1 0 0 0 0 0 -1 0 1 0 -1 0 0 0 0 0 -1 0 0 -1 0 0 0 0 4 -21 1 0 0 0 0 0 0 0 0 0 0 0 0 0 1 1 0 0 0 0 0 0 0 0 0 0 0 0 1 0 0 0 0 0 0 0 0 0 0 0 1 0 0 0 0 0 0 0 0 0 1 0 0 0 0 0 0 0 0 0 0 0 0 0 1 0zm-1 0l1 0 0 0 -1 0zm6 0l0 22 0 0 0 0 0 0 -1 0 0 0 0 0 0 0 -1 0 0 0 0 0 0 0 -1 0 0 0 0 0 0 0 -1 0 0 0 0 0 0 0 0 0 -1 0 0 0 0 0 -1 0 0 0 0 0 0 0 0 0 -1 0 0 0 0 0 -1 0 0 0 3 -22 0 0 0 0 0 0 0 0 0 0 0 0 1 0 0 0 0 0 0 0 0 0 1 0 0 0 0 0 0 0 0 0 0 0 1 0 0 0 0 0 0 0 0 0 0 0 1 0 0 0 0 0 0 0 0 0 0 0 1 0 0 0 0 0 0 0zm5 0l2 22 1 0 0 0 -1 0 0 0 0 0 -1 0 0 0 0 0 0 0 -1 0 0 0 0 0 0 0 -1 0 0 0 0 0 0 0 -1 0 0 0 0 0 0 0 -1 0 0 0 0 0 0 0 0 0 -1 0 0 0 0 0 0 0 -1 0 0 0 0 0 0 -22 0 0 0 0 1 0 -1 0 1 0 0 0 0 0 0 0 0 0 1 0 0 0 0 0 0 0 0 0 0 0 1 0 0 0 0 0 0 0 0 0 0 0 1 0 0 0 0 0 0 0 0 0 1 0 0 0 0 0 0 0 0 0 0 0 0 0zm0 0l0 0 0 0 0 0zm6 -1l4 21 0 0 0 0 0 0 -1 1 0 0 0 0 0 0 -1 0 0 0 0 0 -1 0 1 0 -1 0 0 0 0 0 -1 0 0 0 0 0 0 0 -1 0 0 0 0 0 0 0 0 0 -1 0 0 0 0 0 0 0 -1 0 0 1 0 0 0 0 -1 0 -2 -22 1 0 0 0 0 0 0 0 0 0 0 0 0 0 1 0 0 0 0 0 0 0 0 0 1 0 0 0 0 0 0 0 0 0 0 0 1 0 0 0 0 0 0 0 0 0 0 0 1 -1 0 0 0 0 0 0 0 0 0 0 0 0 0 0 1 0zm-1 0l1 0 0 0 -1 0zm11 -3l8 20 0 0 0 0 -1 0 0 1 0 0 -1 0 0 0 -1 0 0 0 -1 1 0 0 0 0 -1 0 0 0 -1 0 0 0 -1 1 0 0 -1 0 0 0 -1 0 0 0 -1 0 0 1 0 0 -1 0 0 0 -1 0 0 0 -1 0 0 0 -1 0 0 0 -4 -21 0 0 0 0 1 0 0 0 0 0 1 0 0 0 0 0 1 0 0 0 0 -1 1 0 0 0 0 0 1 0 0 0 0 0 1 0 0 0 0 0 0 -1 1 0 0 0 0 0 1 0 0 0 0 0 1 0 0 0 0 -1 1 0 0 0 0 0zm0 0l0 0 0 0 0 0zm9 -5l13 18 -1 0 0 0 0 1 -1 0 0 0 0 0 -1 1 0 0 -1 0 0 0 0 1 -1 0 0 0 -1 0 0 1 0 0 -1 0 0 0 -1 0 0 1 0 0 -1 0 0 0 -1 0 0 1 -1 0 0 0 0 0 -1 0 0 1 -1 0 0 0 -1 0 -8 -20 0 0 1 0 0 0 0 0 1 0 0 -1 0 0 0 0 1 0 0 0 0 0 1 0 0 -1 0 0 1 0 0 0 0 0 1 0 0 -1 0 0 0 0 1 0 0 0 0 0 1 -1 0 0 0 0 0 0 1 0 0 -1 0 0 1 0 -1 0zm13 18l0 0 -1 0 1 0zm-8 -21l14 17 0 0 0 0 -1 0 0 0 0 0 0 0 0 0 -1 1 0 0 0 0 0 0 0 0 -1 0 0 1 0 0 0 0 0 0 0 0 -1 0 0 0 0 1 0 0 0 0 0 0 -1 0 0 0 0 0 0 0 0 1 -1 0 0 0 0 0 0 0 -13 -18 0 0 1 0 0 0 0 0 0 0 0 0 0 0 1 -1 0 0 0 0 0 0 0 0 0 0 0 0 0 0 1 0 0 -1 0 0 0 0 0 0 0 0 1 0 -1 0 1 0 0 0 0 0 0 0 0 -1 0 0 1 0 0 0 0 0 0 0zm0 0l0 0 0 0 0 0zm4 -4l15 16 0 0 0 0 0 0 0 0 0 0 -1 0 0 1 0 0 0 0 0 0 -1 0 0 0 0 1 0 0 0 0 0 0 0 0 -1 0 0 1 0 0 0 0 0 0 -1 0 0 0 0 0 0 1 0 0 0 0 -1 0 0 0 0 0 0 1 0 0 -14 -17 0 0 0 0 0 0 0 -1 0 0 1 0 0 0 0 0 0 0 0 0 0 0 0 0 1 0 0 0 0 -1 0 0 0 0 0 0 0 0 0 0 0 0 1 -1 0 0 0 0 0 0 0 0 0 0 0 0 0 0 1 0 0 0 0 -1 0 0zm0 0l0 0 0 0 0 0zm3 -4l17 14 0 0 0 0 0 0 0 1 0 0 0 0 0 0 -1 0 0 1 0 0 0 0 0 0 -1 0 0 0 0 1 0 0 0 0 0 0 0 0 -1 0 0 1 0 0 0 0 0 0 0 0 -1 1 0 0 0 0 0 0 0 0 -1 0 0 0 0 1 -15 -16 0 0 0 0 0 0 0 0 0 0 1 0 0 -1 0 0 0 0 0 0 0 0 0 0 0 0 1 0 0 0 0 0 0 -1 0 0 0 0 0 0 0 0 0 0 0 0 1 -1 0 0 0 0 0 0 0 0 0 0 0 0 0 0 0 0 0 -1zm0 1l0 -1 0 1 0 0zm4 -5l18 12 0 0 0 0 0 1 0 0 -1 0 0 0 0 0 0 1 0 0 0 0 -1 0 0 0 0 0 0 1 0 0 0 0 0 0 0 0 -1 0 0 1 0 0 0 0 0 0 0 0 -1 1 0 0 0 0 0 0 0 1 0 0 0 0 -1 0 0 0 -17 -14 1 0 0 0 0 0 0 0 0 0 0 0 0 -1 0 0 0 0 0 0 1 0 0 0 0 0 0 0 0 -1 0 0 0 0 0 0 0 0 1 0 0 -1 0 0 0 0 0 0 0 0 0 0 0 0 0 -1 0 1 1 -1 0 0 0 0 0 0zm18 12l0 0 -1 1 1 -1zm-13 -21l20 8 0 0 0 1 0 0 -1 0 0 1 0 0 0 1 0 0 -1 0 0 1 0 0 0 1 0 0 -1 0 0 1 0 0 0 1 -1 0 0 1 0 0 0 0 0 1 -1 0 0 1 0 0 0 0 -1 1 0 0 0 1 0 0 -1 0 0 1 0 0 -18 -12 0 0 0 0 0 -1 0 0 1 0 0 -1 0 0 0 0 0 0 0 -1 1 0 0 0 0 -1 0 0 0 0 0 0 1 -1 0 0 0 0 0 -1 0 0 0 0 1 -1 0 0 0 0 0 -1 0 0 0 0 0 0 1 -1 0 0 0 0 0 0zm20 8l0 0 0 0 0 0zm-17 -18l21 4 0 0 0 0 0 1 0 0 0 1 0 0 0 1 0 0 -1 0 0 1 0 0 0 1 0 0 0 1 0 0 0 1 0 0 -1 0 0 1 0 0 0 1 0 0 0 1 -1 0 0 0 0 1 0 0 0 1 0 0 0 1 -1 0 0 1 0 0 -20 -8 0 -1 0 0 0 0 0 -1 0 0 1 0 0 0 0 -1 0 0 0 0 0 -1 0 0 0 0 0 -1 0 0 1 0 0 -1 0 0 0 0 0 -1 0 0 0 0 0 -1 0 0 0 0 0 -1 1 0 0 0 0 0 0 -1 0 0 0 -1 0 1zm21 4l0 0 0 0 0 0zm-20 -10l21 2 0 1 0 0 0 0 0 0 0 0 0 1 0 0 0 0 0 1 0 0 0 0 0 0 0 0 0 1 0 0 0 0 0 0 0 0 0 0 0 1 0 0 0 0 0 0 0 0 0 1 0 0 0 0 0 0 0 1 -1 0 0 0 0 0 0 1 -21 -4 0 0 0 -1 0 0 0 0 0 0 0 0 0 -1 0 0 0 0 0 0 0 0 0 -1 0 0 0 0 0 0 0 0 0 0 0 -1 0 0 0 0 0 0 0 0 1 -1 0 0 0 0 0 0 0 0 0 0 0 0 0 -1 0 0 0 0 0 0zm21 2l0 0 0 1 0 -1zm-21 -7l22 0 0 0 0 0 0 0 0 0 0 1 0 0 0 0 0 1 0 0 0 0 0 0 0 0 0 1 0 0 0 0 0 0 0 1 0 0 0 0 0 0 0 1 0 0 0 0 0 0 0 1 0 0 0 0 0 0 0 0 0 1 0 0 0 0 -1 0 -21 -2 0 0 0 0 0 0 0 0 0 0 0 -1 0 0 0 0 0 0 0 0 0 -1 0 0 0 0 0 0 0 0 0 0 0 0 0 -1 0 0 0 0 0 0 0 -1 0 0 0 0 0 0 0 0 0 0 0 -1 0 0 0 0 0 0 0 0 0 0zm0 -5l21 -3 0 1 1 0 0 0 0 0 0 0 0 1 0 0 0 0 0 0 0 1 0 0 0 0 0 0 0 1 0 0 0 0 0 0 0 1 0 0 0 0 0 0 0 0 0 0 0 1 0 0 0 0 0 1 0 0 0 0 0 0 0 1 0 0 0 0 -22 0 0 0 0 0 0 -1 0 0 0 0 0 0 0 0 0 0 0 -1 0 0 0 0 0 0 0 0 0 -1 0 0 0 0 0 0 0 0 0 0 0 0 0 -1 0 0 0 0 0 0 0 0 0 -1 0 0 0 0 0 0 0 0 0 -1 0 0 0 1zm21 -3l0 1 0 0 0 -1zm-22 -3l21 -4 0 0 0 0 0 1 0 0 1 0 0 0 0 0 0 1 0 0 0 0 0 0 0 0 0 1 0 0 0 0 0 1 0 0 0 0 0 0 0 0 0 1 0 0 0 0 0 0 0 0 0 1 0 0 0 0 0 0 0 1 0 0 0 0 0 0 -21 3 0 0 0 -1 0 0 0 0 0 0 0 0 0 -1 0 1 0 -1 -1 0 0 0 0 0 0 -1 0 0 0 0 0 0 0 0 0 -1 0 0 0 0 0 0 0 0 0 0 0 0 0 -1 0 0 0 0 0 0 0 0 0 -1 0 0 0 0 0 0zm21 -4l0 0 0 0 0 0z"/>
   </g>
   <g>
    <path class="fil0" d="M35502 10473l-124 -375c-12,-37 -38,-67 -74,-85 -35,-18 -75,-21 -112,-9 -38,12 -68,38 -86,73 -5,9 -8,18 -11,27l-821 205 -579 145c-170,42 -288,192 -288,365 0,26 3,52 9,78l-64 22c-25,-31 -65,-52 -108,-52 -77,0 -139,62 -139,138 0,75 62,137 139,137 76,0 138,-62 138,-137 0,-3 0,-6 0,-9l60 -21c8,17 17,34 27,50l-76 50c-12,8 -19,21 -19,35l0 104c-129,19 -228,130 -228,264 0,147 121,267 270,267 140,0 255,-105 269,-239l749 0c45,139 176,239 331,239 191,0 347,-153 347,-343 0,-175 -134,-320 -305,-340l0 -244 463 -185c7,6 16,11 24,15 21,11 44,16 67,16 15,0 31,-2 46,-7 78,-25 120,-108 95,-184zm-2258 587c-31,0 -56,-25 -56,-55 0,-31 25,-55 56,-55 30,0 55,24 55,55 0,30 -25,55 -55,55zm1977 -496l-218 87 -134 -406 228 -57c0,0 0,0 0,1l124 374c0,1 0,1 0,1zm-1313 175l-78 -234 427 -107 40 120 -40 0c-8,0 -16,2 -23,7l-326 214zm-403 171c-10,-29 -15,-60 -15,-91 0,-135 93,-252 225,-285l34 -9 86 261 -296 194c-14,-22 -26,-45 -34,-70zm-89 753c-103,0 -187,-83 -187,-185 0,-102 84,-185 187,-185 103,0 187,83 187,185 0,102 -84,185 -187,185zm265 -240c-23,-108 -112,-192 -223,-209l0 -82 812 -532 128 0c18,62 76,108 144,108 68,0 126,-46 144,-108l37 0 0 462c-171,20 -305,165 -305,340 0,7 1,14 1,21l-738 0zm794 -864c0,-36 30,-66 67,-66 37,0 67,30 67,66 0,37 -30,66 -67,66 -37,0 -67,-29 -67,-66zm553 843c0,144 -118,261 -263,261 -145,0 -263,-117 -263,-261 0,-143 118,-260 263,-260 145,0 263,117 263,260zm-263 -884l-79 0c-18,-62 -76,-107 -144,-107 -68,0 -126,45 -144,107l-14 0 -46 -140 450 -112 137 416 -118 47 0 -170c0,-22 -19,-41 -42,-41zm616 61c-16,5 -34,4 -49,-4 -15,-8 -27,-21 -32,-37l-124 -376c-5,-16 -4,-33 4,-48 8,-15 21,-26 37,-31 7,-2 14,-4 21,-4 10,0 19,3 29,7 15,8 26,21 32,37l123 375c12,34 -7,70 -41,81z"/>
    <path id="1" class="fil1" d="M35388 10095l124 374 -21 7 -123 -375 20 -6zm-89 -72l10 -20 0 0 4 2 3 2 4 2 3 2 3 2 3 2 4 3 3 2 3 2 3 3 3 2 2 3 3 3 3 2 2 3 3 3 3 3 2 3 2 3 2 3 3 3 2 4 2 3 2 3 2 4 1 3 2 3 2 4 1 4 2 3 1 4 1 4 -20 6 -2 -3 -1 -3 -1 -3 -1 -3 -2 -3 -1 -3 -2 -3 -1 -3 -2 -3 -2 -3 -2 -3 -1 -2 -2 -3 -2 -3 -2 -2 -3 -3 -2 -2 -2 -3 -2 -2 -3 -2 -2 -3 -3 -2 -2 -2 -3 -2 -2 -2 -3 -2 -3 -2 -3 -2 -3 -2 -3 -1 -3 -2 -3 -1 0 0zm-104 -8l-7 -21 0 0 4 -1 4 -1 4 -1 3 -1 4 -1 4 -1 4 0 4 -1 4 0 4 0 3 -1 4 0 4 0 4 0 4 0 4 1 4 0 3 0 4 1 4 1 4 0 4 1 3 1 4 1 4 1 4 1 3 2 4 1 4 1 3 2 4 2 3 1 -10 20 -3 -2 -3 -1 -3 -2 -3 -1 -3 -1 -3 -1 -4 -1 -3 -1 -3 -1 -3 -1 -4 -1 -3 0 -3 -1 -3 0 -4 0 -3 -1 -3 0 -4 0 -3 0 -3 0 -4 0 -3 0 -3 0 -4 1 -3 0 -3 1 -4 0 -3 1 -3 1 -3 1 -4 1 -3 1 0 0zm-80 67l-19 -10 0 0 2 -3 2 -4 2 -3 2 -3 2 -4 2 -3 2 -3 3 -3 2 -3 3 -3 2 -3 3 -3 3 -2 2 -3 3 -3 3 -2 3 -2 3 -3 3 -2 3 -2 4 -3 3 -2 3 -2 4 -2 3 -1 3 -2 4 -2 4 -1 3 -2 4 -1 3 -2 4 -1 7 21 -3 1 -3 1 -4 1 -3 1 -3 2 -3 1 -3 2 -3 1 -3 2 -3 2 -2 1 -3 2 -3 2 -2 2 -3 2 -3 2 -2 3 -3 2 -2 2 -2 2 -3 3 -2 2 -2 3 -2 2 -2 3 -2 3 -2 2 -2 3 -2 3 -1 3 -2 3 -2 3 0 0zm-19 -10l0 0 2 -3 -2 3zm2 42l-5 -21 -8 8 0 -1 0 -1 1 -1 0 -1 0 -1 0 -1 1 -1 0 -1 0 0 1 -1 0 -1 0 -1 1 -1 0 -1 0 -1 1 -1 0 -1 0 -1 1 0 0 -1 0 -1 1 -1 0 -1 1 -1 0 -1 0 -1 1 0 0 -1 1 -1 0 -1 1 -1 0 -1 19 10 0 1 0 0 -1 1 0 1 0 1 -1 1 0 0 0 1 -1 1 0 1 0 0 -1 1 0 1 0 1 -1 0 0 1 0 1 -1 1 0 0 0 1 -1 1 0 1 0 1 0 0 -1 1 0 1 0 1 0 0 -1 1 0 1 0 1 0 1 -8 7zm8 -7l-2 6 -6 1 8 -7zm-834 191l821 -205 5 21 -821 205 -5 -21zm-580 145l580 -145 5 21 -580 145 0 0 -5 -21zm-274 376l-22 0 0 0 1 -17 1 -16 1 -17 3 -16 3 -16 4 -15 4 -16 5 -15 6 -15 6 -14 7 -15 7 -14 8 -13 8 -14 9 -13 10 -12 10 -13 10 -11 11 -12 12 -11 12 -10 12 -10 13 -10 13 -9 14 -8 14 -8 15 -8 14 -6 16 -7 15 -5 16 -5 16 -5 5 21 -15 4 -15 5 -14 5 -15 6 -14 7 -13 7 -14 7 -13 8 -12 9 -12 9 -12 9 -11 10 -11 10 -10 11 -10 11 -10 12 -9 12 -8 12 -8 13 -8 13 -7 13 -6 13 -6 14 -5 14 -5 15 -4 14 -4 15 -3 15 -2 15 -2 15 -1 16 0 16 0 0zm1 88l-7 -20 -7 12 -1 -2 0 -3 -1 -2 0 -3 -1 -2 0 -3 0 -2 -1 -3 0 -2 -1 -3 0 -2 0 -3 -1 -2 0 -3 0 -2 -1 -3 0 -2 0 -3 0 -2 -1 -3 0 -3 0 -2 0 -3 0 -2 0 -3 0 -2 -1 -3 0 -2 0 -3 0 -2 0 -3 0 -2 22 0 0 2 0 2 0 3 0 2 0 3 0 2 0 2 1 3 0 2 0 3 0 2 0 2 0 3 1 2 0 2 0 3 0 2 1 3 0 2 0 2 1 3 0 2 0 2 1 3 0 2 0 2 1 3 0 2 1 3 0 2 1 2 0 3 -7 12zm7 -12l2 9 -9 3 7 -12zm-78 14l64 -22 7 20 -63 22 -13 -3 5 -17zm8 20l-8 3 -5 -6 13 3zm-112 -51l0 -21 0 0 4 0 4 0 5 0 4 1 4 0 5 1 4 1 4 0 4 2 4 1 4 1 4 1 4 2 4 1 4 2 3 2 4 2 4 2 3 2 4 2 3 2 4 2 3 3 3 2 3 3 4 3 3 2 3 3 2 3 3 3 3 3 2 3 -17 14 -2 -3 -2 -3 -2 -2 -3 -3 -2 -2 -3 -2 -3 -3 -2 -2 -3 -2 -3 -2 -3 -2 -3 -2 -3 -2 -3 -2 -3 -1 -3 -2 -3 -1 -4 -2 -3 -1 -3 -1 -4 -2 -3 -1 -4 -1 -3 0 -4 -1 -3 -1 -4 -1 -3 0 -4 0 -4 -1 -4 0 -3 0 0 0zm-128 127l-22 0 0 0 0 -8 1 -7 1 -8 1 -7 2 -7 2 -7 2 -7 3 -7 3 -7 3 -6 4 -6 4 -6 4 -6 4 -6 5 -5 5 -5 5 -5 5 -5 6 -4 6 -4 6 -4 6 -4 7 -3 6 -3 7 -2 7 -3 7 -2 8 -1 7 -2 7 -1 8 0 8 0 0 21 -7 0 -6 1 -7 1 -6 1 -6 1 -6 2 -6 2 -6 2 -6 3 -5 2 -6 3 -5 4 -5 3 -5 4 -4 4 -5 4 -4 5 -4 4 -4 5 -3 5 -4 5 -3 5 -3 6 -2 5 -2 6 -2 6 -2 6 -2 6 -1 6 -1 7 0 6 0 7 0 0zm128 126l0 22 0 0 -8 0 -8 -1 -7 -1 -7 -1 -8 -2 -7 -2 -7 -2 -7 -3 -6 -3 -7 -3 -6 -4 -6 -4 -6 -4 -6 -4 -5 -5 -5 -5 -5 -5 -5 -5 -4 -6 -4 -6 -4 -6 -4 -6 -3 -6 -3 -7 -3 -7 -2 -6 -2 -7 -2 -8 -1 -7 -1 -7 -1 -8 0 -7 22 0 0 6 0 7 1 6 1 6 2 6 2 6 2 6 2 6 2 5 3 6 3 5 4 5 3 5 4 5 4 5 4 4 5 4 4 4 5 4 5 3 5 4 6 3 5 3 6 2 6 2 6 2 6 2 6 2 6 1 7 0 6 1 7 0 0 0zm127 -126l22 0 0 0 0 7 0 8 -1 7 -2 7 -1 8 -2 7 -3 6 -2 7 -3 7 -4 6 -3 6 -4 6 -4 6 -5 6 -5 5 -5 5 -5 5 -5 5 -6 4 -6 4 -6 4 -6 4 -6 3 -7 3 -7 3 -7 2 -7 2 -7 2 -8 1 -7 1 -8 1 -7 0 0 -22 6 0 7 -1 6 0 6 -1 7 -2 6 -2 6 -2 5 -2 6 -2 6 -3 5 -3 5 -4 5 -3 5 -4 5 -4 4 -4 4 -4 4 -5 4 -5 4 -5 3 -5 3 -5 3 -6 2 -5 3 -6 2 -6 1 -6 2 -6 1 -6 1 -6 0 -7 0 -6 0 0zm7 -19l8 20 7 -11 0 0 0 1 0 0 0 0 0 1 0 0 0 0 0 0 0 1 0 0 0 0 0 1 0 0 0 0 0 1 0 0 0 0 0 0 0 1 0 0 0 0 0 1 0 0 0 0 0 0 0 1 0 0 0 0 0 1 0 0 0 0 0 1 -22 0 0 -1 0 0 0 0 0 0 0 -1 0 0 0 0 0 0 0 0 0 -1 0 0 0 0 0 -1 0 0 0 0 0 0 0 -1 0 0 0 0 0 0 0 -1 0 0 0 0 0 0 0 -1 0 0 0 0 0 0 0 -1 0 0 0 0 0 0 7 -11zm-7 11l0 -9 7 -2 -7 11zm74 -12l-59 21 -8 -20 60 -21 14 6 -7 14zm-7 -20l9 -3 5 9 -14 -6zm37 69l-12 -18 -3 15 -1 -1 -1 -2 -1 -2 -1 -1 -1 -2 -1 -1 -1 -2 -1 -1 -1 -2 0 -2 -1 -1 -1 -2 -1 -1 -1 -2 -1 -2 -1 -1 -1 -2 -1 -1 -1 -2 0 -2 -1 -1 -1 -2 -1 -2 -1 -1 -1 -2 -1 -1 0 -2 -1 -2 -1 -1 -1 -2 -1 -2 0 -1 20 -9 0 1 1 2 1 1 1 2 0 1 1 2 1 2 1 1 0 2 1 1 1 2 1 1 1 2 0 1 1 2 1 1 1 2 1 1 1 2 1 2 0 1 1 2 1 1 1 1 1 2 1 1 1 2 1 1 1 2 1 1 1 2 1 1 -4 15zm4 -15l6 9 -10 6 4 -15zm-92 47l76 -50 12 18 -76 50 -12 -18 0 0zm-2 44l-22 0 0 0 0 -2 0 -2 1 -1 0 -2 0 -2 0 -1 1 -2 0 -1 0 -2 1 -1 0 -2 1 -1 1 -2 0 -1 1 -2 1 -1 0 -1 1 -2 1 -1 1 -1 1 -2 1 -1 1 -1 1 -1 1 -2 1 -1 1 -1 2 -1 1 -1 1 -1 2 -1 1 -1 12 18 -1 1 -1 0 0 1 -1 0 -1 1 -1 1 0 0 -1 1 0 1 -1 1 -1 0 0 1 -1 1 0 1 -1 0 0 1 -1 1 0 1 0 1 -1 1 0 0 0 1 -1 1 0 1 0 1 0 1 0 1 -1 1 0 1 0 1 0 1 0 1 0 0zm-22 104l0 -104 22 0 0 104 -9 10 -13 -10zm22 0l0 9 -9 1 9 -10zm-229 264l-21 0 0 0 0 -13 1 -13 1 -12 2 -13 3 -12 3 -12 4 -12 4 -12 5 -11 5 -11 5 -11 6 -11 7 -10 7 -10 7 -10 8 -9 8 -9 9 -9 9 -8 9 -8 10 -7 10 -7 10 -7 11 -6 10 -6 12 -5 11 -5 12 -4 12 -4 12 -3 12 -3 13 -2 3 21 -12 2 -11 3 -11 3 -11 3 -11 4 -10 5 -11 5 -10 5 -9 6 -10 6 -9 6 -9 7 -9 7 -8 8 -8 8 -7 8 -8 9 -6 9 -7 9 -6 9 -5 10 -6 10 -4 10 -5 11 -4 11 -3 11 -3 11 -2 11 -2 11 -1 12 -1 12 -1 12 0 0zm260 257l0 21 0 0 -15 0 -14 -1 -14 -2 -14 -2 -13 -4 -14 -3 -13 -5 -12 -5 -13 -5 -12 -6 -12 -7 -11 -7 -11 -8 -11 -8 -10 -9 -10 -9 -9 -10 -9 -10 -8 -11 -8 -11 -8 -11 -6 -12 -7 -12 -5 -12 -5 -13 -5 -12 -4 -14 -3 -13 -2 -14 -2 -14 -1 -14 0 -14 21 0 1 13 1 13 1 13 3 13 3 12 3 12 4 12 5 12 5 11 6 11 6 11 7 10 7 10 8 10 8 9 9 9 9 9 9 8 10 8 10 7 10 6 11 7 12 5 11 5 12 5 12 4 12 3 13 3 12 3 13 1 14 1 13 1 0 0zm269 -240l0 22 11 -10 -2 13 -2 13 -3 12 -4 13 -4 12 -4 12 -5 11 -6 12 -6 11 -6 11 -7 10 -8 10 -8 10 -8 9 -9 9 -9 9 -10 8 -10 8 -10 7 -11 7 -11 7 -11 6 -11 5 -12 5 -12 4 -13 4 -12 3 -13 3 -13 2 -13 2 -14 1 -13 0 0 -21 12 -1 13 -1 12 -1 12 -2 12 -3 11 -3 12 -3 11 -4 11 -5 10 -5 11 -5 10 -6 10 -7 9 -6 9 -7 9 -8 9 -8 8 -8 7 -9 8 -9 7 -9 6 -10 6 -10 6 -10 5 -11 5 -10 4 -11 4 -11 3 -12 2 -12 2 -11 2 -12 11 -10zm-11 10l1 -10 10 0 -11 10zm760 12l-749 0 0 -22 749 0 11 8 -11 14zm0 -22l8 0 3 8 -11 -8zm331 240l0 21 0 0 -15 0 -15 -1 -14 -2 -15 -2 -14 -2 -14 -3 -14 -4 -13 -4 -14 -5 -13 -5 -13 -6 -12 -6 -12 -7 -12 -7 -12 -8 -11 -8 -11 -8 -11 -9 -10 -9 -10 -10 -10 -10 -9 -10 -9 -11 -8 -11 -8 -11 -7 -12 -7 -12 -7 -12 -6 -13 -5 -13 -6 -13 -4 -13 21 -6 4 12 5 12 5 12 6 12 6 12 6 11 7 11 8 10 8 11 8 10 8 10 9 9 10 9 9 9 10 8 11 8 10 7 11 8 12 6 11 7 12 5 12 6 12 5 13 4 12 4 13 4 14 3 13 2 13 2 14 1 14 1 14 1 0 0zm336 -333l21 0 0 0 0 19 -1 18 -3 17 -3 18 -4 17 -5 17 -5 16 -7 16 -7 16 -8 15 -8 15 -10 14 -10 14 -10 13 -12 13 -11 12 -13 12 -13 11 -13 11 -14 10 -15 9 -15 8 -15 8 -16 7 -16 7 -17 5 -17 5 -17 4 -18 3 -18 2 -18 2 -18 0 0 -21 17 -1 17 -1 17 -2 16 -3 17 -4 16 -4 15 -6 15 -6 15 -6 15 -8 14 -8 13 -8 14 -9 12 -10 13 -11 11 -11 11 -11 11 -12 10 -13 9 -13 9 -13 8 -14 7 -15 7 -14 6 -15 6 -16 4 -16 4 -16 3 -16 2 -17 1 -16 1 -18 0 0zm-305 -340l21 0 -9 -11 16 3 17 3 16 4 15 4 16 5 15 6 14 7 15 7 14 7 13 9 13 9 13 9 12 10 12 11 12 11 11 11 10 12 10 12 9 13 9 14 8 13 7 14 7 15 6 14 6 15 5 16 4 15 3 16 3 17 2 16 1 17 0 16 -21 0 -1 -15 -1 -16 -2 -15 -2 -16 -3 -15 -4 -14 -5 -15 -5 -14 -6 -14 -6 -13 -7 -13 -8 -13 -8 -13 -9 -12 -9 -11 -10 -12 -10 -10 -11 -11 -11 -10 -11 -9 -12 -9 -13 -8 -12 -8 -14 -7 -13 -7 -14 -6 -14 -5 -14 -5 -15 -5 -15 -3 -15 -3 -16 -2 -9 -11zm9 11l-9 -1 0 -10 9 11zm12 -255l0 244 -21 0 0 -244 6 -10 15 10zm-21 0l0 -7 6 -3 -6 10zm478 -175l-463 185 -9 -20 464 -185 11 2 -3 18zm-8 -20l6 -2 5 4 -11 -2zm33 16l-10 19 0 0 -1 0 0 -1 -1 0 -1 -1 -1 0 -1 -1 -1 0 0 -1 -1 0 -1 -1 -1 0 -1 -1 -1 0 -1 -1 0 0 -1 -1 -1 0 -1 -1 -1 0 0 -1 -1 0 -1 -1 -1 0 -1 -1 0 0 -1 -1 -1 0 -1 -1 -1 -1 0 0 -1 -1 -1 0 14 -17 0 0 1 1 1 0 0 1 1 0 1 1 0 0 1 1 1 0 0 0 1 1 1 0 0 1 1 0 1 1 1 0 0 1 1 0 1 1 0 0 1 0 1 1 1 0 0 1 1 0 1 0 0 1 1 0 1 1 1 0 1 0 0 1 0 0zm62 15l0 21 0 0 -2 0 -3 0 -2 0 -2 0 -2 0 -3 0 -2 -1 -2 0 -3 0 -2 -1 -2 0 -2 0 -3 -1 -2 0 -2 -1 -3 0 -2 -1 -2 0 -2 -1 -3 -1 -2 0 -2 -1 -2 -1 -2 0 -3 -1 -2 -1 -2 -1 -2 -1 -2 -1 -2 -1 -3 -1 -2 -1 10 -19 2 1 2 1 2 0 2 1 2 1 1 1 2 1 2 0 2 1 2 1 2 0 2 1 2 0 2 1 2 0 2 1 1 0 2 1 2 0 2 0 2 1 2 0 2 0 2 1 2 0 2 0 2 0 2 0 2 0 2 0 2 1 2 0 0 0zm43 -7l6 20 0 0 -1 1 -2 0 -1 1 -2 0 -1 1 -2 0 -1 0 -2 1 -1 0 -2 0 -1 1 -2 0 -1 0 -2 1 -2 0 -1 0 -2 0 -1 1 -2 0 -1 0 -2 0 -1 0 -2 1 -1 0 -2 0 -2 0 -1 0 -2 0 -1 0 -2 0 -1 0 -2 0 0 -21 1 0 2 0 1 -1 1 0 2 0 1 0 1 0 2 0 1 0 1 0 2 0 1 0 1 -1 2 0 1 0 2 0 1 0 1 -1 1 0 2 0 1 0 1 -1 2 0 1 0 1 -1 2 0 1 0 1 -1 2 0 1 0 1 -1 2 0 0 0zm0 0l0 0 6 -2 -6 2zm87 -171l21 -7 0 0 2 8 2 8 2 8 1 7 1 8 0 8 0 8 -1 7 -1 8 -1 7 -1 8 -2 7 -3 7 -2 7 -3 7 -3 7 -4 7 -4 6 -4 7 -5 6 -5 5 -5 6 -5 5 -6 6 -6 5 -6 4 -6 4 -7 4 -7 4 -7 4 -8 3 -8 2 -6 -20 6 -3 7 -2 6 -3 6 -3 6 -4 5 -3 6 -4 5 -5 5 -4 4 -5 5 -5 4 -5 4 -5 4 -5 3 -6 3 -6 3 -5 3 -6 2 -7 2 -6 1 -6 2 -7 1 -6 1 -7 0 -6 0 -7 0 -6 -1 -7 -1 -7 -1 -7 -2 -6 -2 -7 0 0zm-2314 529l22 0 0 0 0 2 0 2 1 2 0 2 0 3 1 2 1 2 1 2 0 2 1 2 2 1 1 2 1 2 1 2 2 1 1 2 2 1 1 2 2 1 2 1 2 1 1 1 2 1 2 1 2 1 2 1 3 0 2 1 2 0 2 0 2 1 3 0 0 21 -4 0 -3 0 -3 0 -4 -1 -3 -1 -3 -1 -3 -1 -3 -1 -3 -1 -3 -2 -3 -1 -2 -2 -3 -2 -3 -2 -2 -2 -2 -2 -2 -2 -3 -3 -2 -2 -1 -3 -2 -2 -2 -3 -1 -3 -2 -3 -1 -3 -1 -3 -1 -3 0 -3 -1 -3 0 -4 -1 -3 0 -3 0 0zm67 -66l0 22 0 0 -3 0 -2 0 -2 0 -2 0 -2 1 -3 1 -2 0 -2 1 -2 1 -2 1 -1 1 -2 1 -2 1 -2 2 -1 1 -2 1 -1 2 -2 2 -1 1 -1 2 -1 2 -2 2 -1 2 0 1 -1 2 -1 3 -1 2 0 2 0 2 -1 2 0 2 0 3 -22 0 0 -4 1 -3 0 -3 1 -4 0 -3 1 -3 1 -3 1 -3 2 -3 1 -3 2 -2 2 -3 1 -3 2 -2 3 -3 2 -2 2 -2 2 -2 3 -2 3 -2 2 -2 3 -1 3 -2 3 -1 3 -1 3 -1 3 -1 3 -1 4 0 3 -1 3 0 4 0 0 0zm66 66l-22 0 0 0 0 -3 0 -2 0 -2 -1 -2 0 -2 -1 -2 0 -3 -1 -2 -1 -1 -1 -2 -1 -2 -1 -2 -2 -2 -1 -1 -1 -2 -2 -2 -1 -1 -2 -1 -2 -2 -1 -1 -2 -1 -2 -1 -2 -1 -2 -1 -2 -1 -2 0 -2 -1 -2 -1 -3 0 -2 0 -2 0 -2 0 0 -22 3 0 3 0 4 1 3 0 3 1 3 1 3 1 3 1 3 1 3 2 3 1 3 2 2 2 3 2 2 2 3 2 2 2 2 3 2 2 2 3 1 3 2 2 1 3 2 3 1 3 1 3 1 3 1 3 0 4 1 3 0 3 0 4 0 0zm-66 65l0 -21 0 0 2 0 2 -1 2 0 3 0 2 -1 2 0 2 -1 2 -1 2 -1 2 -1 2 -1 2 -1 1 -1 2 -1 2 -2 1 -1 2 -2 1 -1 1 -2 2 -2 1 -2 1 -1 1 -2 1 -2 1 -2 0 -2 1 -2 0 -3 1 -2 0 -2 0 -2 0 -2 22 0 0 3 0 3 -1 4 0 3 -1 3 -1 3 -1 3 -1 3 -2 3 -1 3 -2 3 -1 2 -2 3 -2 2 -2 3 -2 2 -3 2 -2 2 -3 2 -2 2 -3 2 -3 1 -3 2 -3 1 -3 1 -3 1 -3 1 -3 1 -3 1 -4 0 -3 0 -3 0 0 0zm1755 -429l218 -87 8 20 -218 87 -15 -7 7 -13zm8 20l-11 4 -4 -11 15 7zm-128 -419l134 406 -21 6 -134 -405 8 -14 13 7zm-21 7l-3 -11 11 -3 -8 14zm242 -50l-229 57 -5 -21 228 -57 13 6 -7 15zm-6 -21l9 -3 4 9 -13 -6zm13 7l-20 7 0 1 0 0 0 0 0 0 0 0 0 0 0 0 -1 -4 1 3 0 1 0 0 0 0 -1 -5 1 4 0 0 0 1 0 0 -1 -5 1 5 0 -1 0 0 0 1 0 0 0 -1 -1 -4 1 5 0 -1 0 0 0 1 0 0 0 -1 0 0 0 0 20 -8 0 1 0 0 0 -2 0 0 0 2 0 0 0 -1 1 4 -1 -3 0 -1 0 0 0 1 0 0 0 -1 1 4 -1 -4 0 0 0 1 0 0 1 3 -1 -4 0 0 0 0 0 1 1 4 -1 -5 0 0 0 0 0 0 0 0 0 0 0 0 0 1zm0 -1l0 1 0 0 0 -1zm103 383l-123 -375 20 -7 124 375 0 1 -21 6zm21 -7l0 1 0 0 0 -1zm-6 14l-8 -20 -7 12 0 -2 1 5 0 0 -1 -5 0 0 1 5 0 0 -1 -5 1 5 0 0 -1 -5 1 5 0 -1 -1 -4 1 4 0 0 -1 -4 1 4 0 0 -1 -4 1 4 0 0 -1 -4 0 3 1 1 -1 -4 1 4 0 0 -1 -4 0 3 1 1 -1 -2 21 -5 0 -2 0 1 1 4 -1 -5 0 0 1 5 -1 -5 0 1 1 4 -1 -5 0 0 1 5 -1 -5 0 0 1 5 -1 -5 0 0 1 5 -1 -5 0 0 1 5 -1 -5 0 0 1 5 -1 -5 0 0 1 5 0 0 -1 -5 0 0 1 5 0 -2 -7 12zm7 -12l1 8 -8 4 7 -12zm-1391 -61l77 234 -21 7 -77 -234 8 -14 13 7zm-21 7l-4 -11 12 -3 -8 14zm440 -99l-427 106 -5 -21 426 -106 13 7 -7 14zm-6 -21l10 -3 3 10 -13 -7zm32 133l-39 -120 20 -6 40 120 -10 14 -11 -8zm21 -6l5 14 -15 0 10 -14zm-50 -8l40 0 0 22 -40 0 0 0 0 -22zm-17 27l-12 -18 0 0 1 -1 1 0 1 -1 1 0 1 -1 0 0 1 0 1 -1 1 0 1 -1 1 0 1 0 1 -1 0 0 1 0 1 0 1 -1 1 0 1 0 1 0 1 -1 1 0 1 0 1 0 1 0 1 0 1 0 1 -1 1 0 1 0 0 0 1 0 0 22 0 0 -1 0 0 0 -1 0 0 0 -1 0 -1 0 0 0 -1 0 0 0 -1 1 0 0 -1 0 0 0 -1 0 0 0 -1 0 -1 1 0 0 -1 0 0 0 -1 0 0 1 -1 0 0 0 -1 0 0 1 -1 0 0 0 -1 0 0 1 -1 0 0 0zm-12 -18l0 0 2 -1 -2 1zm-326 214l326 -214 12 18 -326 214 -17 -6 5 -12zm12 18l-12 8 -5 -14 17 6zm-434 71l21 0 0 0 0 2 0 3 0 3 1 3 0 3 0 2 0 3 0 3 0 3 1 3 0 2 0 3 1 3 0 3 1 2 0 3 0 3 1 3 0 2 1 3 1 3 0 3 1 2 0 3 1 3 1 3 1 2 0 3 1 3 1 2 1 3 1 3 -21 7 -1 -3 -1 -3 -1 -3 -1 -3 -1 -3 0 -3 -1 -3 -1 -3 -1 -3 0 -3 -1 -3 0 -3 -1 -2 -1 -3 0 -3 -1 -3 0 -3 -1 -3 0 -3 0 -3 -1 -3 0 -3 0 -3 -1 -3 0 -3 0 -3 0 -3 0 -3 0 -3 0 -3 0 -3 0 -3 0 0zm233 -296l5 21 0 0 -12 3 -12 4 -11 4 -11 5 -11 5 -10 5 -11 6 -10 6 -9 7 -10 7 -9 7 -9 8 -8 8 -8 8 -8 9 -7 9 -7 9 -7 9 -6 10 -6 10 -5 10 -5 11 -5 11 -4 10 -3 12 -4 11 -2 11 -3 12 -1 12 -2 11 0 13 -1 12 -21 0 0 -13 1 -13 1 -13 2 -13 2 -12 3 -13 4 -12 4 -12 4 -11 5 -12 5 -11 6 -11 6 -11 7 -11 7 -10 8 -10 7 -9 9 -10 8 -9 10 -8 9 -8 10 -8 10 -8 10 -7 11 -7 11 -6 11 -6 12 -5 12 -5 12 -5 13 -3 13 -4 0 0zm39 12l-34 9 -5 -21 34 -8 13 7 -8 13zm-5 -20l10 -3 3 10 -13 -7zm78 274l-86 -261 21 -6 86 260 -4 13 -17 -6zm21 -7l2 8 -6 5 4 -13zm-313 189l296 -194 13 18 -297 194 -15 -3 3 -15zm12 18l-9 6 -6 -9 15 3zm-50 -75l21 -7 0 0 0 2 1 2 1 3 1 2 1 2 0 2 1 2 1 3 1 2 1 2 1 2 1 2 1 2 1 2 1 2 1 3 1 2 1 2 1 2 1 2 1 2 1 2 1 2 1 2 2 2 1 2 1 2 1 2 1 2 2 2 1 2 1 2 -18 12 -2 -2 -1 -3 -1 -2 -2 -2 -1 -2 -1 -2 -1 -2 -2 -2 -1 -3 -1 -2 -1 -2 -1 -2 -2 -2 -1 -3 -1 -2 -1 -2 -1 -2 -1 -3 -1 -2 -1 -2 -1 -3 -1 -2 -1 -2 -1 -2 -1 -3 -1 -2 -1 -3 -1 -2 -1 -2 0 -3 -1 -2 -1 -2 0 0zm-277 564l22 0 0 0 0 9 1 9 1 8 1 9 2 8 3 9 2 8 4 8 3 7 4 8 4 7 5 7 5 7 5 7 6 6 5 6 7 6 6 5 7 6 6 4 8 5 7 4 8 4 7 3 8 4 9 2 8 3 8 2 9 1 9 1 9 1 9 0 0 22 -10 0 -10 -1 -10 -1 -10 -2 -10 -2 -9 -3 -9 -3 -9 -4 -9 -4 -8 -4 -9 -5 -8 -5 -8 -5 -7 -6 -7 -6 -7 -7 -7 -6 -6 -8 -6 -7 -5 -8 -5 -8 -5 -8 -5 -8 -4 -9 -3 -9 -3 -9 -3 -9 -2 -10 -2 -9 -1 -10 -1 -10 0 -10 0 0zm198 -196l0 22 0 0 -9 0 -9 0 -9 2 -9 1 -8 2 -8 2 -9 3 -8 3 -7 4 -8 4 -7 4 -8 4 -6 5 -7 5 -6 6 -7 6 -5 6 -6 6 -5 7 -5 7 -5 7 -4 7 -4 7 -3 8 -4 8 -2 8 -3 8 -2 9 -1 8 -1 9 -1 9 0 9 -22 0 0 -10 1 -10 1 -10 2 -10 2 -9 3 -9 3 -9 3 -9 4 -9 5 -8 5 -9 5 -8 5 -7 6 -8 6 -7 7 -7 7 -6 7 -6 7 -6 8 -6 8 -5 9 -4 8 -5 9 -4 9 -3 9 -3 9 -3 10 -2 10 -2 10 -1 10 -1 10 0 0 0zm198 196l-22 0 0 0 0 -9 -1 -9 -1 -9 -1 -8 -2 -9 -3 -8 -3 -8 -3 -8 -3 -8 -4 -7 -4 -7 -5 -7 -5 -7 -5 -7 -6 -6 -6 -6 -6 -6 -6 -6 -7 -5 -7 -5 -7 -4 -7 -4 -8 -4 -8 -4 -8 -3 -8 -3 -8 -2 -9 -2 -8 -1 -9 -2 -9 0 -9 0 0 -22 10 0 10 1 10 1 10 2 9 2 10 3 9 3 9 3 9 4 8 5 9 4 8 5 7 6 8 6 7 6 7 6 6 7 7 7 6 8 5 7 5 8 5 9 4 8 4 9 4 9 3 9 3 9 2 9 2 10 1 10 1 10 0 10 0 0zm-198 196l0 -22 0 0 9 0 9 -1 9 -1 8 -1 9 -2 8 -3 8 -2 8 -4 8 -3 8 -4 7 -4 7 -5 7 -4 7 -6 6 -5 6 -6 6 -6 6 -6 5 -7 5 -7 5 -7 4 -7 4 -8 3 -7 3 -8 3 -8 3 -9 2 -8 1 -9 1 -8 1 -9 0 -9 22 0 0 10 -1 10 -1 10 -2 9 -2 10 -3 9 -3 9 -4 9 -4 9 -4 8 -5 8 -5 8 -5 8 -6 7 -7 8 -6 6 -7 7 -7 6 -8 6 -7 5 -8 5 -9 5 -8 4 -9 4 -9 4 -9 3 -10 3 -9 2 -10 2 -10 1 -10 1 -10 0 0 0zm31 -460l21 0 -9 -11 11 2 11 2 10 3 10 3 11 3 10 4 9 4 10 5 9 5 10 5 9 5 8 6 9 6 8 7 8 6 8 7 7 8 8 7 6 8 7 8 6 9 6 8 6 9 5 9 5 9 5 10 4 9 4 10 4 10 3 10 3 11 2 10 -21 5 -2 -10 -3 -10 -3 -9 -3 -9 -4 -9 -4 -9 -4 -9 -5 -8 -5 -9 -5 -8 -5 -8 -6 -7 -6 -8 -7 -7 -6 -7 -7 -7 -7 -6 -8 -7 -7 -6 -8 -5 -8 -6 -9 -5 -8 -5 -9 -4 -9 -4 -9 -4 -9 -4 -9 -3 -10 -2 -9 -3 -10 -2 -10 -2 -9 -10zm9 10l-9 -1 0 -9 9 10zm12 -92l0 82 -21 0 0 -82 5 -9 16 9zm-21 0l0 -6 5 -3 -5 9zm829 -522l-812 531 -12 -18 812 -532 6 -1 6 20zm-12 -19l3 -1 3 0 -6 1zm134 20l-128 0 0 -21 128 0 10 7 -10 14zm0 -21l8 0 2 7 -10 -7zm144 107l0 21 0 0 -7 0 -7 0 -6 -1 -7 -1 -6 -1 -7 -2 -6 -1 -6 -2 -6 -2 -6 -3 -6 -3 -6 -2 -6 -4 -5 -3 -5 -3 -6 -4 -5 -4 -4 -4 -5 -5 -4 -4 -5 -5 -4 -4 -4 -5 -4 -6 -3 -5 -3 -5 -3 -6 -3 -6 -3 -5 -2 -6 -3 -6 -2 -7 21 -6 2 6 2 5 2 5 2 5 3 5 3 5 2 5 3 4 4 5 3 4 4 4 3 4 4 4 4 4 4 3 5 4 4 3 5 3 4 3 5 3 5 2 5 2 5 2 6 2 5 2 6 2 5 1 6 1 5 1 6 0 6 1 6 0 0 0zm144 -107l0 21 10 -8 -2 7 -2 6 -2 6 -3 5 -3 6 -3 6 -3 5 -4 5 -3 6 -4 5 -4 4 -5 5 -4 4 -5 5 -5 4 -5 4 -5 4 -5 3 -6 3 -5 4 -6 2 -6 3 -6 3 -6 2 -6 2 -6 1 -7 2 -6 1 -7 1 -7 1 -6 0 -7 0 0 -21 6 0 6 -1 5 0 6 -1 6 -1 5 -1 6 -2 5 -2 5 -2 5 -2 6 -2 4 -2 5 -3 5 -3 5 -3 4 -3 4 -4 5 -3 4 -4 3 -4 4 -4 4 -4 3 -4 3 -5 3 -4 3 -5 3 -5 2 -5 3 -5 2 -5 2 -5 1 -6 11 -7zm-11 7l3 -7 8 0 -11 7zm48 14l-37 0 0 -21 37 0 11 10 -11 11zm0 -21l11 0 0 10 -11 -10zm-11 472l0 -462 22 0 0 462 -9 11 -13 -11zm22 0l0 10 -9 1 9 -11zm-305 340l-22 0 0 0 1 -16 1 -17 2 -16 3 -17 3 -16 4 -15 5 -16 6 -15 6 -14 7 -15 7 -14 8 -13 9 -14 9 -13 10 -12 10 -12 11 -11 11 -11 12 -11 13 -10 12 -9 14 -9 13 -9 14 -7 14 -7 15 -7 15 -6 16 -5 15 -4 16 -4 16 -3 17 -3 3 22 -16 2 -15 3 -15 3 -15 5 -14 5 -14 5 -14 6 -14 7 -13 7 -13 8 -12 8 -12 9 -11 9 -12 10 -10 11 -10 10 -10 12 -9 11 -9 12 -8 13 -8 13 -7 13 -6 13 -6 14 -5 14 -5 15 -4 14 -3 15 -3 16 -1 15 -1 16 -1 15 0 0zm-10 32l0 -21 -11 11 0 -1 0 0 0 -1 0 -1 0 0 0 -1 0 -1 0 0 0 -1 0 -1 0 0 0 -1 0 -1 0 0 0 -1 0 -1 -1 0 0 -1 0 -1 0 0 0 -1 0 -1 0 0 0 -1 0 -1 0 0 0 -1 0 -1 0 0 0 -1 0 -1 0 -1 22 0 0 1 0 1 0 0 0 1 0 1 0 0 0 1 0 1 0 0 0 1 0 0 0 1 0 1 0 0 0 1 0 1 0 0 0 1 0 1 0 0 0 1 0 0 1 1 0 1 0 0 0 1 0 1 0 0 0 1 0 0 0 1 0 1 -11 11zm11 -11l1 11 -12 0 11 -11zm-749 -10l738 0 0 21 -738 0 -11 -8 11 -13zm0 21l-9 0 -2 -8 11 8zm861 -951l0 21 0 0 -3 0 -3 1 -3 0 -2 0 -3 1 -3 1 -2 1 -3 1 -2 1 -3 1 -2 1 -2 2 -2 1 -2 2 -3 2 -1 1 -2 2 -2 2 -2 2 -1 3 -2 2 -1 2 -1 2 -1 3 -1 2 -1 3 -1 3 -1 2 0 3 -1 3 0 2 0 3 -22 0 0 -4 1 -3 0 -4 1 -4 1 -4 1 -3 1 -4 1 -4 2 -3 2 -3 2 -3 2 -4 2 -3 2 -2 3 -3 2 -3 3 -2 3 -3 3 -2 3 -2 3 -2 3 -2 3 -2 4 -1 3 -2 4 -1 4 -1 3 -1 4 -1 4 0 4 0 4 0 0 0zm77 76l-21 0 0 0 0 -3 -1 -2 0 -3 -1 -3 0 -2 -1 -3 -1 -3 -1 -2 -1 -3 -1 -2 -1 -2 -2 -2 -1 -3 -2 -2 -2 -2 -2 -2 -2 -1 -2 -2 -2 -2 -2 -1 -2 -2 -3 -1 -2 -1 -2 -1 -3 -1 -3 -1 -2 -1 -3 -1 -3 0 -2 0 -3 -1 -3 0 0 -21 4 0 4 0 4 0 4 1 3 1 4 1 4 1 3 2 4 1 3 2 3 2 3 2 3 2 3 2 3 3 3 2 2 3 3 3 2 2 2 3 2 4 2 3 2 3 1 3 2 4 1 4 1 3 1 4 1 4 0 4 0 3 0 4 0 0zm-77 77l0 -22 0 0 3 0 3 0 2 0 3 -1 3 0 2 -1 3 -1 3 -1 2 -1 2 -1 3 -2 2 -1 2 -2 2 -1 2 -2 2 -2 2 -2 2 -2 2 -2 1 -2 2 -2 1 -2 1 -3 1 -2 1 -3 1 -2 1 -3 0 -3 1 -2 0 -3 1 -3 0 -3 21 0 0 4 0 4 0 4 -1 4 -1 3 -1 4 -1 4 -2 3 -1 4 -2 3 -2 3 -2 3 -2 3 -2 3 -3 3 -2 3 -3 2 -3 2 -3 3 -3 2 -3 2 -3 2 -3 1 -4 2 -3 1 -4 2 -4 1 -3 0 -4 1 -4 1 -4 0 -4 0 0 0zm-78 -77l22 0 0 0 0 3 0 3 1 3 0 2 1 3 1 3 1 2 1 3 1 2 1 3 1 2 2 2 1 2 2 2 2 2 2 2 1 2 3 2 2 1 2 2 2 1 2 2 3 1 2 1 3 1 2 1 3 1 3 0 2 1 3 0 3 0 3 0 0 22 -4 0 -4 0 -4 -1 -4 -1 -3 0 -4 -1 -4 -2 -3 -1 -4 -2 -3 -1 -3 -2 -3 -2 -3 -2 -3 -3 -3 -2 -3 -2 -2 -3 -3 -3 -2 -3 -2 -3 -2 -3 -2 -3 -2 -3 -2 -4 -1 -3 -1 -4 -1 -4 -1 -3 -1 -4 0 -4 -1 -4 0 -4 0 0zm301 1115l0 -22 0 0 13 0 13 -1 12 -2 13 -2 12 -3 12 -3 12 -4 11 -4 11 -5 11 -6 11 -6 10 -7 10 -6 9 -8 10 -8 8 -8 9 -9 8 -9 7 -9 7 -10 7 -10 6 -11 5 -10 6 -11 4 -12 4 -11 3 -12 3 -12 2 -13 2 -12 1 -13 0 -13 22 0 0 14 -1 14 -2 14 -2 13 -3 13 -4 13 -4 13 -5 12 -6 12 -6 12 -7 11 -7 11 -7 11 -9 10 -8 10 -9 9 -10 9 -10 9 -10 8 -11 7 -11 7 -11 7 -12 6 -12 5 -13 5 -13 5 -13 3 -13 3 -13 3 -14 1 -14 1 -14 1 0 0zm-274 -272l21 0 0 0 1 13 1 13 1 12 3 13 2 12 4 12 4 11 4 12 5 11 6 10 6 11 7 10 7 10 7 9 8 9 8 9 9 8 9 8 10 8 10 6 10 7 11 6 11 6 11 5 11 4 12 4 12 3 12 3 12 2 13 2 13 1 13 0 0 22 -14 -1 -14 -1 -14 -1 -13 -3 -14 -3 -13 -3 -12 -5 -13 -5 -12 -5 -12 -6 -11 -7 -11 -7 -11 -7 -10 -8 -10 -9 -10 -9 -9 -9 -9 -10 -8 -10 -7 -11 -8 -11 -6 -11 -6 -12 -6 -12 -5 -12 -4 -13 -4 -13 -3 -13 -2 -13 -2 -14 -1 -14 0 -14 0 0zm274 -271l0 22 0 0 -13 0 -13 1 -12 2 -13 2 -12 3 -12 3 -12 4 -11 4 -11 5 -11 6 -11 6 -10 6 -10 7 -10 8 -9 8 -9 8 -8 9 -8 9 -7 9 -7 10 -7 10 -6 11 -6 10 -5 11 -4 12 -4 11 -4 12 -2 12 -3 12 -1 13 -1 13 -1 12 -21 0 0 -13 1 -14 2 -14 2 -13 3 -13 4 -13 4 -13 5 -12 6 -12 6 -12 6 -11 8 -11 7 -11 8 -10 9 -10 9 -9 10 -9 10 -9 10 -8 11 -7 11 -8 11 -6 12 -6 12 -6 13 -4 12 -5 13 -3 14 -3 13 -3 14 -1 14 -2 14 0 0 0zm274 271l-22 0 0 0 0 -12 -1 -13 -2 -13 -2 -12 -3 -12 -3 -12 -4 -11 -4 -12 -6 -11 -5 -10 -6 -11 -7 -10 -7 -10 -7 -9 -8 -9 -9 -9 -8 -8 -10 -8 -9 -8 -10 -7 -10 -6 -11 -6 -11 -6 -11 -5 -11 -4 -12 -4 -12 -3 -12 -3 -13 -2 -12 -2 -13 -1 -13 0 0 -22 14 0 14 2 14 1 13 3 13 3 13 3 13 5 13 4 12 6 12 6 11 6 11 8 11 7 10 8 10 9 10 9 9 9 8 10 9 10 7 11 7 11 7 11 6 12 6 12 5 12 4 13 4 13 3 13 2 13 2 14 1 14 0 13 0 0zm-353 -895l79 0 0 22 -79 0 -11 -8 11 -14zm0 22l-8 0 -3 -8 11 8zm-144 -107l0 -22 0 0 7 0 6 1 7 0 7 1 6 2 7 1 6 2 6 2 6 2 6 3 6 2 6 3 5 3 6 4 5 3 5 4 5 4 5 4 5 4 4 5 5 4 4 5 4 5 3 5 4 5 3 6 3 5 3 6 3 6 2 6 2 6 2 6 -21 6 -1 -5 -2 -5 -2 -6 -3 -5 -2 -4 -3 -5 -3 -5 -3 -5 -3 -4 -3 -4 -4 -4 -4 -4 -3 -4 -4 -4 -5 -4 -4 -3 -4 -3 -5 -3 -5 -3 -5 -3 -4 -2 -6 -3 -5 -2 -5 -2 -5 -1 -6 -2 -5 -1 -6 -1 -6 -1 -5 -1 -6 0 -6 0 0 0zm-144 107l0 -22 -11 8 2 -6 3 -6 2 -6 3 -6 3 -6 3 -5 3 -6 3 -5 4 -5 4 -5 4 -5 5 -4 4 -5 5 -4 5 -4 5 -4 5 -4 5 -3 5 -4 6 -3 6 -3 6 -2 6 -3 6 -2 6 -2 6 -2 7 -1 6 -2 7 -1 6 0 7 -1 7 0 0 22 -6 0 -6 0 -6 1 -5 1 -6 1 -5 1 -6 2 -5 1 -6 2 -5 2 -5 3 -5 2 -5 3 -4 3 -5 3 -4 3 -5 3 -4 4 -4 4 -4 4 -3 4 -4 4 -3 4 -4 4 -3 5 -2 5 -3 5 -3 4 -2 5 -2 6 -2 5 -2 5 -10 8zm10 -8l-2 8 -8 0 10 -8zm-24 -14l14 0 0 22 -14 0 -10 -8 10 -14zm0 22l-8 0 -2 -8 10 8zm-36 -154l47 140 -21 6 -46 -140 7 -14 13 8zm-20 6l-4 -11 11 -3 -7 14zm462 -105l-449 112 -6 -21 450 -112 13 7 -8 14zm-5 -21l10 -2 3 9 -13 -7zm130 430l-138 -416 21 -7 138 417 -7 13 -14 -7zm21 -6l3 9 -10 4 7 -13zm-134 40l119 -47 8 20 -118 47 -15 -10 6 -10zm9 20l-15 6 0 -16 15 10zm6 -180l0 170 -21 0 0 -170 0 0 21 0zm-52 -30l0 -22 0 0 3 0 2 1 3 0 2 0 3 1 3 1 2 0 2 1 3 1 2 2 2 1 2 1 2 2 2 1 2 2 2 2 2 1 1 2 2 2 1 2 2 2 1 3 1 2 1 2 1 2 1 3 1 2 0 3 1 2 0 3 0 3 0 2 -21 0 0 -1 -1 -2 0 -1 0 -2 0 -1 -1 -2 0 -1 -1 -2 0 -1 -1 -1 -1 -1 -1 -2 0 -1 -1 -1 -1 -1 -1 -1 -1 -1 -2 -1 -1 -1 -1 -1 -1 -1 -1 0 -2 -1 -1 -1 -2 0 -1 -1 -1 0 -2 0 -1 -1 -2 0 -1 0 -2 0 0 0zm562 56l10 -20 0 0 1 1 1 1 2 0 1 1 1 0 1 0 2 1 1 0 1 1 1 0 2 0 1 0 1 1 1 0 2 0 1 0 1 0 2 0 1 0 1 0 2 0 1 0 1 0 1 0 2 0 1 -1 1 0 2 0 1 0 1 -1 2 0 1 -1 7 21 -2 1 -2 0 -2 1 -2 0 -1 0 -2 1 -2 0 -2 0 -2 0 -2 1 -1 0 -2 0 -2 0 -2 0 -2 0 -2 0 -1 -1 -2 0 -2 0 -2 0 -2 -1 -1 0 -2 -1 -2 0 -2 -1 -2 0 -1 -1 -2 0 -2 -1 -2 -1 -1 -1 -2 0 0 0zm0 0l0 0 4 2 -4 -2zm-37 -44l20 -6 0 0 1 1 0 1 1 1 0 2 1 1 0 1 1 1 1 1 0 1 1 1 1 1 0 2 1 1 1 1 1 1 1 1 0 1 1 1 1 0 1 1 1 1 1 1 1 1 1 1 1 1 1 0 1 1 1 1 1 0 2 1 1 1 1 0 -10 20 -2 -1 -1 -1 -2 -1 -1 -1 -2 -1 -1 -1 -2 -1 -1 -1 -2 -1 -1 -2 -2 -1 -1 -1 -1 -1 -2 -2 -1 -1 -1 -1 -1 -2 -1 -1 -2 -2 -1 -1 -1 -2 -1 -1 -1 -2 0 -1 -1 -2 -1 -1 -1 -2 -1 -2 -1 -1 0 -2 -1 -2 0 -2 0 0zm-104 -382l124 376 -20 6 -124 -375 0 0 20 -7zm-20 7l0 0 -1 -1 1 1zm4 -57l20 10 0 0 -1 1 0 2 -1 1 0 1 -1 1 0 1 -1 2 0 1 0 1 -1 1 0 2 0 1 0 1 -1 1 0 2 0 1 0 1 0 1 0 2 0 1 0 1 0 1 0 2 0 1 0 1 1 1 0 2 0 1 0 1 1 2 0 1 0 1 -20 7 -1 -2 0 -2 -1 -2 0 -2 -1 -1 0 -2 0 -2 0 -2 -1 -1 0 -2 0 -2 0 -2 0 -2 0 -1 0 -2 0 -2 0 -2 1 -1 0 -2 0 -2 1 -2 0 -2 0 -1 1 -2 0 -2 1 -1 1 -2 0 -2 1 -2 1 -1 0 -2 1 -2 0 0zm44 -37l7 21 0 0 -1 0 -2 1 -1 0 -1 1 -1 0 -2 1 -1 0 -1 1 -1 1 -1 0 -1 1 -1 1 -1 1 -1 0 -1 1 -1 1 -1 1 -1 1 -1 1 -1 1 -1 0 -1 1 -1 1 -1 1 0 1 -1 2 -1 1 -1 1 0 1 -1 1 -1 1 0 1 -20 -10 1 -1 1 -2 1 -1 1 -2 1 -2 1 -1 1 -1 1 -2 1 -1 2 -2 1 -1 1 -1 1 -2 2 -1 1 -1 1 -1 2 -2 1 -1 2 -1 1 -1 2 -1 1 -1 2 -1 1 -1 2 -1 2 0 1 -1 2 -1 2 -1 2 0 1 -1 2 -1 0 0zm24 -3l0 21 0 0 -1 0 0 0 -1 0 -1 0 0 0 -1 0 0 0 -1 0 0 0 -1 1 0 0 -1 0 0 0 -1 0 0 0 -1 0 0 0 -1 0 0 0 -1 0 0 0 -1 1 -1 0 0 0 -1 0 0 0 -1 0 0 0 -1 0 0 1 -1 0 0 0 -7 -21 1 0 1 0 0 0 1 -1 1 0 0 0 1 0 1 0 1 0 0 -1 1 0 1 0 0 0 1 0 1 0 1 0 0 -1 1 0 1 0 1 0 0 0 1 0 1 0 1 0 0 0 1 0 1 0 1 0 0 0 1 0 1 0 1 0 0 0zm34 8l-10 19 0 0 -1 0 -1 -1 0 0 -1 0 -1 -1 -1 0 0 0 -1 -1 -1 0 -1 0 0 0 -1 -1 -1 0 -1 0 0 0 -1 0 -1 0 -1 -1 0 0 -1 0 -1 0 -1 0 -1 0 0 0 -1 0 -1 -1 -1 0 0 0 -1 0 -1 0 -1 0 0 0 0 -21 1 0 1 0 1 0 1 0 1 0 1 0 1 0 1 0 1 0 1 0 2 1 1 0 1 0 1 0 1 0 1 1 1 0 1 0 1 1 1 0 1 0 1 0 1 1 1 0 1 1 2 0 1 0 1 1 1 0 1 1 1 0 1 1 0 0zm-10 19l0 0 -4 -2 4 2zm47 24l-21 7 0 0 0 -1 -1 -2 0 -1 -1 -1 0 -1 -1 -1 0 -2 -1 -1 -1 -1 0 -1 -1 -1 -1 -1 0 -1 -1 -1 -1 -1 -1 -1 -1 -1 -1 -1 0 -1 -1 -1 -1 -1 -1 -1 -1 -1 -1 0 -1 -1 -1 -1 -2 -1 -1 0 -1 -1 -1 -1 -1 0 -1 -1 10 -19 1 1 2 0 2 1 1 1 2 1 1 1 2 2 1 1 2 1 1 1 1 1 2 1 1 2 1 1 2 1 1 2 1 1 1 2 1 1 1 1 1 2 1 1 1 2 1 2 1 1 1 2 1 2 0 1 1 2 1 2 1 1 0 2 0 0zm103 382l-124 -375 21 -7 124 375 -21 7 0 0zm-27 87l-7 -21 0 0 2 0 3 -1 2 -2 3 -1 2 -1 2 -2 2 -1 2 -2 2 -2 2 -1 2 -2 1 -2 2 -2 1 -2 2 -3 1 -2 1 -2 1 -3 1 -2 1 -2 0 -3 1 -2 0 -3 1 -2 0 -3 0 -3 0 -2 -1 -3 0 -2 0 -3 -1 -3 -1 -2 21 -7 1 4 1 3 1 4 0 4 0 3 1 4 0 4 -1 3 0 4 -1 4 0 3 -1 4 -1 3 -2 3 -1 4 -2 3 -1 3 -2 3 -2 3 -2 3 -3 3 -2 2 -3 3 -2 2 -3 3 -3 2 -3 2 -3 2 -4 2 -3 1 -4 2 -3 1 0 0z"/>
   </g>
   <g>
    <path class="fil0" d="M34833 11389c-1,-4 -2,-9 -4,-13 -1,-4 -4,-8 -6,-12 -1,-2 -3,-4 -4,-5 -2,-2 -3,-4 -5,-5 -1,-2 -3,-3 -5,-5 -2,-1 -3,-3 -5,-4 -4,-2 -8,-5 -12,-6 -5,-2 -9,-3 -13,-4 -3,-1 -5,-1 -7,-1 -5,-1 -9,-1 -14,0 -2,0 -4,0 -7,1 -4,1 -9,2 -13,4 -4,1 -8,4 -12,6 -2,1 -4,3 -5,4 -2,2 -4,3 -5,5 -13,12 -21,30 -21,48 0,3 0,5 1,7 0,2 0,5 1,7 0,4 2,9 4,13 1,4 3,8 6,12 1,2 3,3 4,5 1,2 3,4 5,5 1,2 3,3 5,5 1,1 3,3 5,4 4,2 8,4 12,6 4,2 9,3 13,4 3,1 5,1 7,1 2,0 5,0 7,0 2,0 4,0 7,0 2,0 4,0 7,-1 4,-1 8,-2 13,-4 4,-2 8,-4 12,-6 2,-1 3,-3 5,-4 2,-2 4,-3 5,-5 2,-1 3,-3 5,-5 1,-2 3,-3 4,-5 2,-4 5,-8 6,-12 2,-4 3,-9 4,-13 1,-2 1,-5 1,-7 1,-2 1,-4 1,-7 0,-2 0,-4 -1,-6 0,-3 0,-5 -1,-7z"/>
    <path id="1" class="fil1" d="M34819 11380l20 -8 0 0 1 0 0 1 0 0 0 1 0 0 0 1 1 0 0 1 0 0 0 0 0 1 1 1 0 0 0 0 0 1 0 0 0 1 0 0 1 1 0 0 0 1 0 0 0 1 0 0 0 0 0 1 0 0 1 1 0 0 0 1 0 0 0 1 -21 4 0 0 -1 -1 0 0 0 0 0 -1 0 0 0 0 0 -1 0 0 0 0 0 -1 0 0 -1 0 0 -1 0 0 0 0 0 -1 0 0 0 0 0 -1 0 0 0 0 -1 -1 0 0 0 0 0 -1 0 0 0 -1 0 0 0 0 -1 0 0 -1 0 0zm20 -8l0 0 0 0 0 0zm-25 -2l18 -12 0 0 0 1 1 0 0 1 0 0 0 0 1 1 0 0 0 1 0 0 1 0 0 1 0 0 0 1 1 0 0 1 0 0 0 0 0 1 1 0 0 1 0 0 0 0 1 1 0 0 0 1 0 0 0 1 1 0 0 1 0 0 0 0 0 1 -20 8 0 0 0 0 0 -1 0 0 0 0 -1 -1 0 0 0 0 0 -1 0 0 0 0 -1 -1 0 0 0 0 0 -1 0 0 0 0 -1 -1 0 0 0 0 0 -1 0 0 0 0 -1 -1 0 0 0 0 0 0 0 -1 -1 0 0 0 0 -1 0 0 0 0zm18 -12l0 0 0 0 0 0zm-22 8l17 -14 0 0 0 0 1 0 0 0 0 1 0 0 0 0 0 0 0 0 1 1 0 0 0 0 0 0 0 1 0 0 1 0 0 0 0 0 0 0 0 1 0 0 0 0 1 0 0 0 0 1 0 0 0 0 0 0 0 0 0 0 1 1 0 0 0 0 -18 12 0 0 0 0 0 0 0 0 -1 -1 0 0 0 0 0 0 0 0 0 0 0 -1 0 0 -1 0 0 0 0 0 0 0 0 0 0 -1 0 0 0 0 0 0 -1 0 0 0 0 0 0 0 0 -1 0 0 0 0 0 0 0 0 -1 0 0 -1 0 1zm17 -14l0 0 0 -1 0 1zm-21 9l16 -15 0 0 0 0 0 0 0 1 1 0 0 0 0 0 0 0 0 0 0 0 0 1 1 0 0 0 0 0 0 0 0 0 1 1 0 0 0 0 0 0 0 1 1 0 0 0 0 0 0 0 0 0 0 1 1 0 0 0 0 0 0 0 0 1 0 0 -17 14 0 -1 0 0 0 0 0 0 0 0 0 0 0 0 0 0 -1 -1 0 0 0 0 0 0 0 0 0 0 0 -1 0 0 0 0 -1 0 0 0 0 0 0 0 0 0 0 0 0 -1 -1 0 0 0 0 0 0 0 0 0 0 0 0 -1 -1 0 0 0zm0 0l0 0 0 0 0 0zm-4 -4l14 -16 0 0 0 0 0 0 0 0 1 0 0 0 0 1 0 0 0 0 1 0 0 0 0 0 0 1 0 0 1 0 0 0 0 0 0 0 0 1 1 0 0 0 0 0 0 0 0 0 0 1 1 0 0 0 0 0 0 0 0 1 1 0 0 0 0 0 -16 15 0 0 0 0 0 0 0 0 0 0 0 0 0 -1 -1 0 0 0 0 0 0 0 0 0 0 0 0 0 0 0 -1 -1 0 0 0 0 0 0 0 0 0 0 0 0 0 0 -1 0 0 -1 0 0 0 0 0 0 0 0 -1 0 0 0 0 0 0 -1zm0 1l0 -1 0 0 0 1zm-4 -4l12 -18 0 0 0 0 0 0 0 0 0 1 1 0 0 0 0 0 0 0 1 0 0 1 0 0 0 0 0 0 1 0 0 0 0 0 0 0 0 1 1 0 0 0 0 0 0 0 0 0 1 1 0 0 0 0 0 0 0 0 1 0 0 1 0 0 0 0 -14 16 0 0 0 0 0 0 -1 0 0 0 0 0 0 0 0 -1 0 0 0 0 0 0 -1 0 0 0 0 0 0 0 0 0 0 0 0 -1 0 0 -1 0 0 0 0 0 0 0 0 0 0 0 -1 0 0 0 0 0 0 -1 0 0 0 0 0 0 0 0zm12 -18l0 0 -2 -1 2 1zm-23 13l9 -20 0 0 0 0 1 0 0 0 1 1 0 0 1 0 0 0 0 0 1 1 0 0 1 0 0 0 1 0 0 1 0 0 1 0 0 0 1 1 0 0 1 0 0 0 1 1 0 0 0 0 1 0 0 1 1 0 0 0 0 0 1 1 0 0 1 0 -12 18 -1 0 0 0 0 -1 -1 0 0 0 0 0 -1 0 0 0 0 -1 -1 0 0 0 0 0 0 0 -1 -1 0 0 0 0 -1 0 0 0 0 0 -1 0 0 -1 0 0 -1 0 0 0 0 0 -1 0 0 -1 0 0 -1 0 0 0 0 0 -1 0 0 0zm9 -20l0 0 0 0 0 0zm-20 16l5 -21 0 0 0 0 1 0 0 1 1 0 0 0 1 0 0 0 0 0 1 0 1 0 0 0 0 1 1 0 0 0 1 0 0 0 1 0 0 0 1 1 0 0 1 0 0 0 0 0 1 0 1 1 0 0 0 0 1 0 0 0 1 0 0 1 1 0 -9 20 0 0 0 -1 -1 0 0 0 0 0 -1 0 0 0 0 0 0 0 -1 -1 0 0 -1 0 0 0 0 0 -1 0 0 0 0 0 -1 0 0 -1 0 0 -1 0 0 0 0 0 -1 0 0 0 -1 0 0 0 0 0 -1 0 0 0 0 -1 -1 0 0 0zm5 -21l0 0 -1 0 1 0zm-10 21l2 -22 0 0 0 0 0 0 1 0 0 0 0 0 0 0 1 0 0 0 0 0 0 0 1 0 0 0 0 0 0 0 1 0 0 1 0 0 0 0 1 0 0 0 0 0 0 0 1 0 0 0 0 0 0 0 1 0 0 0 0 0 0 0 0 0 1 0 -5 21 0 0 0 0 0 0 0 0 -1 0 0 0 0 0 0 0 0 0 0 0 -1 0 0 0 0 0 0 0 0 0 0 0 -1 0 0 0 0 0 0 0 0 0 -1 0 0 0 0 0 0 0 0 0 0 0 -1 0 0 0 0 0 0 0 0 0 0 0zm0 0l0 0 -1 -1 1 1zm-12 0l-2 -22 0 0 0 0 1 0 1 0 0 0 0 0 1 0 0 0 1 0 1 0 0 0 0 0 1 0 0 0 1 0 0 0 1 0 0 0 1 0 0 0 1 0 0 0 1 0 0 0 1 0 0 0 1 0 0 0 1 0 0 0 1 0 0 0 1 0 -2 22 -1 -1 0 0 0 0 -1 0 0 0 -1 0 0 0 0 0 0 0 -1 0 0 0 -1 0 0 0 0 0 -1 0 0 0 0 0 -1 0 0 0 -1 0 0 0 0 0 -1 0 0 0 0 0 -1 0 0 0 0 0 -1 0 0 0 -1 0 0 1 0 0zm0 0l0 0 1 -1 -1 1zm-6 0l-4 -21 0 0 0 0 1 0 0 0 0 0 0 0 0 0 1 0 0 0 0 0 1 0 0 0 0 0 0 0 0 0 1 0 0 0 0 -1 1 0 0 0 0 0 0 0 0 0 1 0 0 0 0 0 1 0 0 0 0 0 0 0 1 0 0 0 0 0 2 22 0 0 0 0 0 0 0 0 -1 0 0 0 0 0 0 0 0 0 -1 0 0 0 0 0 0 0 0 0 -1 0 0 0 0 0 0 0 0 0 0 0 -1 0 0 0 0 0 0 0 0 0 0 0 -1 0 0 0 0 0 0 0 0 0 -1 0 0 0zm-4 -21l0 0 0 0 0 0zm-7 25l-8 -20 0 0 1 0 0 -1 0 0 1 0 0 0 1 0 0 0 1 -1 0 0 1 0 0 0 1 0 0 0 0 -1 1 0 1 0 0 0 0 0 1 0 0 0 1 -1 0 0 1 0 0 0 1 0 0 0 1 0 0 0 1 0 0 -1 1 0 0 0 4 21 0 0 0 1 -1 0 0 0 0 0 -1 0 0 0 0 0 -1 0 0 0 0 0 -1 0 0 0 0 1 -1 0 0 0 0 0 -1 0 0 0 -1 0 0 0 0 0 -1 1 0 0 0 0 -1 0 0 0 0 0 -1 0 0 0 0 1 -1 0 0 0zm-8 -20l0 0 0 0 0 0zm-2 25l-12 -18 0 0 1 0 0 0 0 -1 1 0 0 0 1 0 0 -1 1 0 0 0 0 0 1 -1 0 0 1 0 0 0 0 -1 1 0 0 0 1 0 0 -1 1 0 0 0 1 0 0 0 0 -1 1 0 0 0 1 0 0 0 1 -1 0 0 1 0 0 0 8 20 0 0 0 0 0 0 -1 0 0 0 -1 1 0 0 0 0 -1 0 0 0 0 0 -1 0 0 1 0 0 -1 0 0 0 0 0 0 0 -1 1 0 0 0 0 -1 0 0 0 0 1 -1 0 0 0 0 0 -1 0 0 0 0 1 -1 0 0 0 0 0zm-12 -18l0 0 2 -1 -2 1zm8 22l-14 -17 0 0 0 0 0 0 0 -1 1 0 0 0 0 0 0 0 0 0 1 -1 0 0 0 0 0 0 0 0 0 0 1 -1 0 0 0 0 0 0 0 0 1 0 0 0 0 0 0 -1 0 0 1 0 0 0 0 0 0 0 1 -1 0 0 0 0 0 0 12 18 0 0 0 0 0 0 0 1 0 -1 -1 1 0 0 0 0 0 0 0 0 -1 0 1 0 -1 0 0 0 0 0 0 1 0 0 0 0 0 0 -1 0 0 0 0 0 0 0 0 0 0 1 -1 0 0 0 0 0 0 0 0 0 0 0 0 0 0 1zm0 -1l0 1 -1 0 1 -1zm-5 4l-15 -15 0 0 0 0 0 0 0 0 1 -1 0 0 0 0 0 0 0 0 1 -1 0 0 0 0 0 0 0 0 0 0 1 -1 0 0 0 0 0 0 0 0 1 0 0 0 0 -1 0 0 0 0 0 0 1 0 0 -1 0 0 0 0 0 0 1 0 0 0 14 17 -1 0 0 0 0 0 0 0 0 0 0 0 0 0 -1 1 0 0 0 0 0 0 0 0 0 0 0 0 0 0 -1 0 0 1 0 0 0 0 0 0 0 0 0 0 -1 0 0 0 0 0 0 1 0 0 0 0 0 0 0 0 0 0 -1 0 0 0zm0 0l0 0 0 0 0 0zm-17 41l-22 0 0 0 0 -2 0 -2 0 -1 1 -2 0 -2 0 -2 0 -2 1 -2 0 -2 1 -2 0 -2 1 -2 0 -2 1 -1 1 -2 0 -2 1 -2 1 -2 1 -1 1 -2 1 -2 1 -2 1 -1 1 -2 1 -1 1 -2 1 -2 2 -1 1 -2 1 -1 2 -2 1 -1 15 15 -1 1 -1 1 -1 1 -1 2 0 1 -1 1 -1 1 -1 1 -1 1 -1 2 0 1 -1 1 -1 1 0 2 -1 1 0 1 -1 2 0 1 -1 1 0 2 -1 1 0 1 0 2 -1 1 0 2 0 1 0 1 -1 2 0 1 0 2 0 1 0 1 0 0zm0 6l-21 2 0 0 0 0 0 0 0 0 0 -1 0 0 0 0 0 0 0 0 -1 -1 0 0 0 0 0 0 0 -1 0 0 0 0 0 0 0 -1 0 0 0 0 0 0 0 -1 0 0 0 0 0 -1 0 0 0 0 0 0 0 0 0 -1 0 0 0 0 0 -1 22 0 0 1 0 0 0 0 0 0 0 1 0 -1 0 0 0 1 0 0 0 0 0 0 0 0 0 1 0 0 0 0 0 0 0 0 0 1 0 0 0 0 0 0 0 0 0 0 0 1 0 0 0 0 0 0 0 0 0 1 0 0 0 0 0 0 0 0zm0 0l0 0 0 0 0 0zm1 6l-21 4 0 0 0 0 0 0 0 0 0 -1 0 0 0 0 0 -1 -1 0 0 0 0 0 0 -1 0 0 0 0 0 0 0 0 0 -1 0 0 0 0 0 0 0 -1 0 0 0 0 0 -1 0 0 0 0 0 0 0 0 0 -1 0 0 0 0 0 -1 0 0 21 -2 0 0 0 1 0 0 0 0 0 0 1 0 0 0 0 1 0 0 0 0 0 0 0 0 0 0 0 1 0 0 0 0 0 0 0 0 0 1 0 0 0 0 0 0 0 0 0 0 0 0 0 1 0 0 0 0 0 0 0 0 0 0 0 1 0 0zm0 0l0 0 0 0 0 0zm4 11l-21 8 0 0 0 0 0 -1 0 0 0 -1 0 0 -1 -1 0 0 0 -1 0 0 0 -1 -1 0 0 -1 0 0 0 0 0 -1 0 0 0 -1 -1 0 0 -1 0 0 0 -1 0 0 0 -1 0 0 0 -1 -1 0 0 -1 0 0 0 -1 0 0 0 -1 0 0 21 -4 0 0 0 1 1 0 0 0 0 1 0 0 0 0 0 1 0 0 0 0 0 1 0 0 0 0 0 1 1 0 0 0 0 1 0 0 0 0 0 1 0 0 0 0 0 1 1 0 0 0 0 1 0 0 0 0 0 1 0 0 0 0 1 1 0 0zm0 0l0 0 0 0 0 0zm5 10l-18 12 0 0 0 -1 -1 0 0 0 0 -1 -1 0 0 -1 0 0 0 -1 -1 0 0 -1 0 0 0 0 0 -1 -1 0 0 -1 0 0 0 0 -1 -1 0 0 0 -1 0 0 -1 -1 0 0 0 0 0 -1 0 0 -1 -1 0 0 0 -1 0 0 0 -1 -1 0 21 -8 0 0 0 0 0 1 0 0 0 0 1 1 0 0 0 0 0 1 0 0 0 0 0 1 1 0 0 0 0 1 0 0 0 0 0 0 1 1 0 0 0 0 0 1 0 0 0 0 1 1 0 0 0 0 0 1 0 0 1 0 0 0 0 1 0 0zm0 0l0 0 1 1 -1 -1zm3 4l-16 14 0 0 -1 0 0 0 0 -1 0 0 0 0 0 0 -1 0 0 -1 0 0 0 0 0 0 0 0 -1 -1 0 0 0 0 0 0 0 0 0 0 0 -1 0 0 -1 0 0 0 0 0 0 -1 0 0 0 0 0 0 -1 0 0 -1 0 0 0 0 0 0 18 -12 0 0 0 0 0 0 0 0 0 0 1 1 0 0 0 0 0 0 0 0 0 0 0 0 0 1 0 0 1 0 0 0 0 0 0 0 0 1 0 0 0 0 0 0 0 0 1 0 0 0 0 1 0 0 0 0 0 0 0 0 0 0 0 0 0 0zm0 0l0 0 0 0 0 0zm4 5l-15 15 0 0 0 0 0 0 -1 -1 0 0 0 0 0 0 0 0 0 -1 -1 0 0 0 0 0 0 0 0 0 -1 -1 0 0 0 0 0 0 0 0 0 0 0 -1 -1 0 0 0 0 0 0 0 0 -1 -1 0 0 0 0 0 0 0 0 -1 0 0 0 0 16 -14 1 1 0 0 0 0 0 0 0 0 0 0 0 0 0 0 0 1 1 0 0 0 0 0 0 0 0 0 0 0 0 1 1 0 0 0 0 0 0 0 0 0 0 0 0 0 0 1 0 0 0 0 1 0 0 0 0 0 0 0 0 0 0 1 0 0zm0 0l0 0 -1 -1 1 1zm5 3l-14 17 0 0 0 0 -1 0 0 0 0 -1 0 0 0 0 -1 0 0 0 0 0 0 0 0 -1 0 0 -1 0 0 0 0 0 0 0 0 -1 -1 0 0 0 0 0 0 0 0 0 0 0 -1 -1 0 0 0 0 0 0 0 0 0 0 -1 -1 0 0 0 0 15 -15 1 0 0 0 0 0 0 0 0 0 0 0 0 0 0 1 0 0 1 0 0 0 0 0 0 0 0 0 0 0 0 0 1 1 0 0 0 0 0 0 0 0 0 0 0 0 0 1 1 0 0 0 0 0 0 0 0 0 0 0 0 0 1 0 0 0zm-14 17l0 0 -2 -1 2 1zm18 -13l-12 18 0 0 0 0 0 -1 -1 0 0 0 0 0 0 0 0 0 -1 0 0 -1 0 0 0 0 0 0 -1 0 0 0 0 0 0 0 0 0 -1 -1 0 0 0 0 0 0 0 0 0 0 -1 -1 0 0 0 0 0 0 0 0 0 0 -1 -1 0 0 0 0 14 -17 0 1 0 0 0 0 0 0 0 0 1 0 0 0 0 0 0 0 0 1 0 0 0 0 1 0 0 0 0 0 0 0 0 0 0 0 0 1 1 0 -1 0 1 0 0 0 0 0 0 0 0 0 1 0 0 0 0 1 0 0 0 0 0 0 0 0zm-12 18l0 0 0 0 0 0zm22 -13l-8 20 0 0 0 0 -1 0 0 0 -1 -1 0 0 -1 0 0 0 -1 0 0 -1 0 0 -1 0 0 0 -1 -1 0 0 -1 0 0 0 -1 0 0 -1 0 0 -1 0 0 0 -1 -1 0 0 0 0 -1 0 0 -1 -1 0 0 0 -1 0 0 -1 0 0 -1 0 12 -18 0 0 1 0 0 0 0 1 1 0 0 0 0 0 1 0 0 0 0 1 1 0 0 0 0 0 1 0 0 1 0 0 0 0 1 0 0 0 0 0 1 1 0 0 0 0 1 0 0 0 0 0 1 0 0 1 0 0 1 0 0 0 0 0 0 0zm0 0l0 0 1 1 -1 -1zm12 4l-5 21 0 0 0 0 -1 -1 0 0 -1 0 0 0 -1 0 0 0 -1 0 0 0 -1 0 0 -1 -1 0 0 0 -1 0 0 0 0 0 -1 0 -1 -1 0 0 0 0 -1 0 0 0 -1 0 0 0 -1 -1 0 0 -1 0 0 0 -1 0 0 -1 -1 0 0 0 8 -20 1 0 0 0 0 1 1 0 0 0 0 0 1 0 0 0 0 0 1 0 0 1 0 0 1 0 0 0 1 0 0 0 0 0 1 0 0 0 0 0 1 1 0 0 0 0 1 0 0 0 0 0 1 0 0 0 0 0 1 0 0 0 0 0 1 1zm-1 -1l1 1 0 0 -1 -1zm6 1l-2 22 0 0 0 0 0 0 -1 0 0 0 0 0 0 0 -1 0 0 0 0 0 0 0 -1 0 0 -1 0 0 0 0 -1 0 0 0 0 0 0 0 -1 0 0 0 0 0 0 0 -1 0 0 0 0 0 -1 0 0 0 0 0 0 0 -1 0 0 0 0 0 5 -21 0 0 0 0 0 0 0 0 0 0 1 0 0 0 0 0 0 0 0 0 0 0 1 0 0 0 0 0 0 0 0 0 0 0 0 0 1 0 0 0 0 0 0 0 0 0 1 0 0 0 0 0 0 0 1 0 0 0 0 0 0 0 0 0 0 0zm0 0l0 0 0 0 0 0zm6 1l0 21 0 0 0 0 -1 0 0 0 0 0 0 0 0 0 -1 0 0 0 0 0 -1 0 0 0 0 0 0 0 -1 0 0 0 0 0 0 0 -1 0 0 0 0 0 0 0 -1 0 0 0 0 0 0 0 0 0 -1 0 0 0 0 0 -1 0 0 0 0 0 2 -22 1 0 0 0 0 0 0 0 0 0 0 0 0 0 1 0 0 1 0 0 0 0 0 0 1 0 0 0 0 0 0 0 0 0 0 0 1 0 0 0 0 0 0 0 0 0 0 0 1 0 0 0 0 0 0 0 0 0 0 0 1 0 0 0 0 0zm6 -1l2 22 0 0 0 0 0 0 -1 0 0 0 0 0 -1 0 0 0 0 0 0 0 -1 0 0 0 0 0 0 0 0 0 -1 0 0 0 0 0 -1 0 0 0 0 0 0 0 0 0 -1 0 0 0 0 0 -1 0 0 0 0 0 0 0 -1 0 0 0 0 0 0 -21 0 0 0 0 1 0 -1 0 1 0 0 0 0 0 0 0 1 0 0 0 0 0 0 0 0 0 0 0 1 0 0 0 0 0 0 0 0 0 1 0 0 0 0 0 0 0 0 0 1 -1 0 0 0 0 0 0 0 0 0 0 0 0 1 0 0 0zm0 0l0 0 -1 0 1 0zm5 -1l5 22 0 0 0 0 -1 0 0 0 0 0 0 0 -1 0 0 0 0 0 -1 0 0 0 0 0 0 0 0 0 -1 0 0 0 0 0 0 0 -1 0 0 0 0 0 0 1 -1 0 0 0 0 0 0 0 -1 0 0 0 0 0 0 0 -1 0 0 0 0 0 -2 -22 0 0 0 0 0 0 0 0 1 0 0 0 0 0 0 0 0 0 1 0 0 0 0 0 0 0 0 0 0 0 0 0 1 0 0 0 0 0 0 0 0 0 1 0 0 0 0 0 0 0 0 0 0 0 1 0 0 0 0 0 0 0 0 0 0 -1zm0 1l0 0 0 -1 0 1zm11 -4l9 20 0 0 -1 0 0 0 -1 1 0 0 -1 0 0 0 0 0 -1 1 0 0 -1 0 0 0 -1 0 0 0 -1 0 0 1 -1 0 0 0 -1 0 0 0 -1 0 0 0 0 1 -1 0 -1 0 0 0 -1 0 0 0 0 0 -1 0 0 0 -1 1 0 0 -5 -22 1 0 0 0 1 0 0 0 0 0 1 0 0 0 0 0 1 0 0 0 0 0 1 -1 0 0 0 0 1 0 0 0 0 0 1 0 0 0 0 0 1 0 0 -1 0 0 1 0 0 0 0 0 1 0 0 0 0 0 1 -1 0 0 0 0 0 0zm0 0l0 0 0 0 0 0zm10 -5l13 18 0 0 -1 0 0 0 -1 1 0 0 0 0 -1 0 0 1 -1 0 0 0 0 0 -1 1 0 0 -1 0 0 0 -1 1 0 0 -1 0 0 0 0 0 -1 1 0 0 -1 0 0 0 -1 1 0 0 -1 0 0 0 0 0 -1 1 0 0 -1 0 0 0 -9 -20 1 0 0 0 1 0 0 0 0 -1 0 0 1 0 0 0 0 0 1 0 0 0 0 -1 1 0 0 0 0 0 1 0 0 0 0 -1 1 0 0 0 0 0 0 0 1 -1 0 0 0 0 1 0 0 0 0 0 1 -1 0 0 0 0 1 0 -1 0zm13 18l0 0 0 0 0 0zm-8 -22l14 17 0 0 0 0 0 0 -1 1 0 0 0 0 0 0 0 0 0 0 -1 0 0 1 0 0 0 0 0 0 -1 0 0 0 0 1 0 0 0 0 -1 0 0 0 0 0 0 0 0 1 -1 0 0 0 0 0 0 0 0 0 -1 0 0 0 0 1 0 0 -13 -18 1 0 0 0 0 0 0 -1 0 0 0 0 1 0 0 0 0 0 0 0 0 0 0 0 1 -1 0 0 0 0 0 0 0 0 0 0 0 0 1 0 0 0 0 0 0 0 0 -1 0 0 0 0 0 0 1 0 0 0 0 0 0 0 0 0 0 -1zm0 1l0 -1 0 0 0 1zm5 -4l15 15 0 0 0 0 0 0 -1 1 0 0 0 0 0 0 0 0 0 0 -1 1 0 0 0 0 0 0 0 0 -1 0 0 0 0 1 0 0 0 0 -1 0 0 0 0 0 0 1 0 0 0 0 -1 0 0 0 0 0 0 0 -1 1 0 0 0 0 0 0 -14 -17 0 0 0 0 1 0 0 0 0 0 0 0 0 0 0 0 0 -1 1 0 0 0 0 0 0 0 0 0 0 0 0 -1 1 0 0 0 0 0 0 0 0 0 0 0 0 0 0 0 1 -1 0 0 0 0 0 0 0 0 0 0 0 0 1 0 0 0zm3 -5l17 14 0 0 0 0 0 0 0 1 0 0 0 0 -1 0 0 0 0 1 0 0 0 0 0 0 -1 0 0 1 0 0 0 0 0 0 -1 0 0 0 0 1 0 0 0 0 0 0 -1 0 0 0 0 1 0 0 0 0 0 0 -1 0 0 1 0 0 0 0 -15 -15 0 -1 0 0 0 0 0 0 0 0 0 0 0 0 1 0 0 -1 0 0 0 0 0 0 0 0 0 0 0 0 0 0 0 0 1 -1 0 0 0 0 0 0 0 0 0 -1 0 0 1 0 0 0 0 0 0 0 0 0 0 0 0 0 0 -1 0 0zm0 0l0 0 0 0 0 0zm4 -4l18 12 0 0 0 0 0 0 -1 0 0 1 0 0 0 0 0 0 0 0 0 1 0 0 -1 0 0 0 0 0 0 1 0 0 0 0 -1 0 0 0 0 0 0 1 0 0 0 0 0 0 -1 1 0 0 0 0 0 0 0 0 0 0 0 1 -1 0 0 0 -17 -14 0 0 1 0 0 0 0 0 0 0 0 0 0 -1 0 0 0 0 1 0 0 0 0 0 0 0 0 0 0 -1 0 0 0 0 0 0 0 0 1 -1 0 0 0 0 0 0 0 0 0 0 0 0 0 0 1 -1 0 0 0 0 0 0 0 0 0 0zm18 12l0 0 0 -1 0 1zm-13 -22l20 8 0 0 0 1 0 0 0 0 0 1 -1 0 0 1 0 0 0 1 0 0 -1 0 0 1 0 0 0 1 -1 0 0 1 0 0 0 0 0 1 -1 0 0 1 0 0 0 1 -1 0 0 0 0 1 0 0 -1 1 0 0 0 0 0 1 -1 0 0 1 -18 -12 0 -1 0 0 0 0 1 0 0 -1 0 0 0 0 0 -1 1 0 0 0 0 -1 0 0 0 0 0 -1 1 0 0 0 0 0 0 -1 0 0 0 0 1 -1 0 0 0 0 0 -1 0 0 0 0 1 -1 0 0 0 0 0 -1 0 0 0 0 0 0zm20 8l0 0 0 0 0 0zm-16 -19l21 4 0 0 0 1 0 0 0 0 0 1 -1 1 0 0 0 0 0 1 0 0 0 1 0 0 0 1 0 0 -1 1 0 0 0 1 0 0 0 1 0 0 0 0 -1 1 0 0 0 1 0 0 0 1 -1 0 0 1 0 0 0 0 0 1 0 1 -1 0 -20 -8 0 -1 1 0 0 0 0 -1 0 0 0 0 0 -1 0 0 0 0 1 -1 0 0 0 0 0 -1 0 0 0 0 0 -1 0 0 0 0 0 -1 1 0 0 0 0 -1 0 0 0 0 0 -1 0 0 0 -1 0 0 0 0 0 -1 1 0 0 0 0 0zm21 4l0 0 0 0 0 0zm-21 -10l22 2 0 0 0 1 0 0 0 0 0 0 0 1 0 0 0 0 0 0 0 1 0 0 0 0 0 0 0 1 0 0 0 0 0 0 0 0 0 1 0 0 0 0 -1 0 0 0 0 1 0 0 0 0 0 0 0 1 0 0 0 0 0 1 0 0 0 0 -21 -4 0 0 0 0 0 0 0 -1 0 0 0 0 0 0 0 -1 0 0 0 0 0 0 0 0 0 -1 0 0 0 0 0 0 0 0 0 0 0 -1 0 0 0 0 0 0 0 0 0 -1 0 0 0 0 0 0 0 0 0 0 0 -1 0 0 0 0 0 0zm22 2l0 0 0 1 0 -1zm-21 -8l22 0 0 0 0 1 0 0 0 0 0 1 0 0 0 0 0 0 0 0 0 1 0 0 0 0 0 0 0 0 0 1 -1 0 0 0 0 1 0 0 0 0 0 0 0 0 0 1 0 0 0 0 0 0 0 1 0 0 0 0 0 0 0 1 0 0 0 0 -22 -2 0 0 1 0 0 0 0 0 0 -1 0 0 0 0 0 0 0 0 0 -1 0 0 0 0 0 0 0 0 0 0 0 -1 0 0 0 0 0 0 0 0 0 -1 0 0 0 0 0 0 0 0 0 -1 0 1 0 -1 0 0 0 0 0 0 0 -1 0 0zm-1 -5l22 -3 0 1 0 0 0 0 0 1 0 0 0 0 0 0 0 0 0 1 0 0 0 0 0 0 0 0 0 1 0 0 0 0 0 1 0 0 1 0 0 0 0 1 0 0 0 0 0 0 0 1 0 0 0 0 0 0 0 0 0 1 0 0 0 0 0 0 -22 0 0 0 0 0 0 0 0 0 0 -1 0 0 0 0 0 0 0 0 0 0 0 0 0 -1 0 0 0 0 0 0 0 0 0 -1 0 0 0 0 0 0 0 -1 0 1 0 -1 0 0 0 0 0 0 0 0 0 -1 0 0 0 0 -1 0 0 0 0 0zm22 -3l0 1 0 -1 0 0zm-22 -3l21 -4 0 0 0 0 0 0 0 1 0 0 0 0 0 0 0 1 0 0 0 0 0 1 0 0 1 0 0 0 0 0 0 1 0 0 0 0 0 0 0 0 0 1 0 0 0 0 0 0 0 0 0 1 0 0 0 0 0 1 0 0 0 0 0 0 0 0 -22 3 0 0 0 0 0 -1 0 0 0 0 0 0 0 0 0 0 0 -1 0 0 0 0 0 0 0 -1 0 0 0 0 0 0 0 0 0 0 0 -1 0 0 0 0 0 0 0 0 0 0 0 -1 0 0 0 0 0 0 0 -1 0 0 0 0 0 0 0 0zm21 -4l0 0 0 0 0 0z"/>
   </g>
  </g>
 </g>
</svg>
