<?xml version="1.0" encoding="iso-8859-1"?>
<!-- Generator: Adobe Illustrator 19.0.0, SVG Export Plug-In . SVG Version: 6.00 Build 0)  -->
<svg version="1.1" id="Capa_1" xmlns="http://www.w3.org/2000/svg" xmlns:xlink="http://www.w3.org/1999/xlink" x="0px" y="0px"
	 viewBox="0 0 480.054 480.054" style="enable-background:new 0 0 480.054 480.054;" xml:space="preserve">
<g>
	<g>
		<path d="M452.976,87.762c-12.758-10.191-28.6-15.742-44.928-15.744c-2.869-0.002-5.736,0.169-8.584,0.512
			c0.39-2.821,0.585-5.665,0.584-8.512C400.057,28.671,371.411,0.01,336.065,0c-35.346-0.01-64.008,28.636-64.018,63.982
			c-0.004,16.174,6.115,31.75,17.128,43.595l-70.784,70.784c-3.117,3.131-3.105,8.197,0.026,11.314
			c1.881,1.872,4.568,2.69,7.174,2.182l25.888-5.176l-13.464,35.904l-7.336-11.008c-1.253-1.877-3.24-3.138-5.472-3.472
			c-2.231-0.321-4.495,0.303-6.248,1.72l-27.104,22.192h-23.808c-2.122,0-4.156,0.844-5.656,2.344l-50.824,50.824
			c-23.655-26.264-64.123-28.378-90.386-4.722s-28.378,64.123-4.722,90.386c12.145,13.484,29.442,21.178,47.589,21.168
			c0.6,0,1.2,0,1.808,0c-1.206,5.248-1.813,10.615-1.808,16c-0.02,39.764,32.199,72.016,71.963,72.037
			c39.764,0.02,72.016-32.199,72.037-71.963c0.007-14.396-4.301-28.463-12.368-40.385l82.024-82.032l85.4-85.4
			c31.069,24.818,76.375,19.75,101.192-11.32S484.045,112.579,452.976,87.762z M264.671,275.962l-85.216,85.336
			c-2.936,2.931-3.145,7.62-0.48,10.8c19.861,23.708,16.741,59.028-6.967,78.889s-59.028,16.741-78.889-6.967
			c-8.453-10.091-13.082-22.838-13.072-36.002c-0.009-7.736,1.601-15.388,4.728-22.464c1.775-4.046-0.065-8.765-4.111-10.54
			c-1.612-0.707-3.411-0.863-5.121-0.444c-25.71,6.461-51.79-9.143-58.252-34.853s9.143-51.79,34.853-58.252
			c3.891-0.978,7.89-1.464,11.902-1.447c16.149-0.018,31.22,8.103,40.088,21.6c1.323,2.004,3.475,3.308,5.864,3.552
			c2.392,0.226,4.761-0.617,6.472-2.304l54.88-54.848h23.36c1.846,0,3.635-0.639,5.064-1.808l22.504-18.4l11.072,16.592
			c0.457,0.695,1.021,1.314,1.672,1.832c2.72,2.162,6.525,2.32,9.416,0.392l31.432-20.952L264.671,275.962z M408.047,200.018
			c-14.859,0.035-29.116-5.87-39.6-16.4c-3.124-3.123-8.188-3.123-11.312,0l-71.32,71.312l10.048-45.176
			c0.962-4.312-1.753-8.588-6.065-9.55c-2.135-0.477-4.372-0.058-6.191,1.159l-27.36,18.24l15.296-40.8
			c1.538-4.142-0.573-8.746-4.715-10.284c-1.4-0.52-2.918-0.638-4.381-0.34l-14.088,2.816l57.92-57.928
			c3.126-3.122,3.129-8.188,0.007-11.314c-0.19-0.191-0.391-0.372-0.599-0.542c-20.613-16.718-23.771-46.981-7.053-67.595
			c16.718-20.613,46.981-23.771,67.595-7.052c15.917,12.909,21.896,34.492,14.89,53.751c-1.498,4.156,0.657,8.741,4.813,10.239
			c1.656,0.597,3.462,0.631,5.139,0.097c5.488-1.753,11.215-2.641,16.976-2.632c30.928,0,56,25.072,56,56
			C464.047,174.946,438.975,200.018,408.047,200.018z"/>
	</g>
</g>
<g>
	<g>
		<rect x="201.438" y="280.001" transform="matrix(0.7071 -0.7071 0.7071 0.7071 -138.02 242.7926)" width="45.256" height="16"/>
	</g>
</g>
<g>
	<g>
		<rect x="299.086" y="172.01" transform="matrix(0.7071 -0.7071 0.7071 0.7071 -34.7153 276.2104)" width="33.944" height="16"/>
	</g>
</g>
<g>
	<g>
		<path d="M175.935,198.7c-0.363-2.179-1.611-4.111-3.448-5.338l-48-32c-2.455-1.639-5.613-1.793-8.216-0.4
			c-2.602,1.393-4.225,4.105-4.224,7.056v40c0,4.418,3.582,8,8,8c0.44-0.002,0.878-0.039,1.312-0.112l48-8
			C173.717,207.179,176.662,203.058,175.935,198.7z M128.047,198.57v-15.608l18.728,12.496L128.047,198.57z"/>
	</g>
</g>
<g>
	<g>
		<rect x="168.047" y="128.018" width="16" height="24"/>
	</g>
</g>
<g>
	<g>
		<rect x="212.738" y="128.016" transform="matrix(0.7071 -0.7071 0.7071 0.7071 -30.555 198.2657)" width="22.624" height="16"/>
	</g>
</g>
<g>
</g>
<g>
</g>
<g>
</g>
<g>
</g>
<g>
</g>
<g>
</g>
<g>
</g>
<g>
</g>
<g>
</g>
<g>
</g>
<g>
</g>
<g>
</g>
<g>
</g>
<g>
</g>
<g>
</g>
</svg>
