<?xml version="1.0" encoding="UTF-8"?>
<!DOCTYPE svg PUBLIC "-//W3C//DTD SVG 1.1//EN" "http://www.w3.org/Graphics/SVG/1.1/DTD/svg11.dtd">
<!-- Creator: CorelDRAW X7 -->
<svg xmlns="http://www.w3.org/2000/svg" xml:space="preserve" width="91.44mm" height="162.56mm" version="1.1" style="shape-rendering:geometricPrecision; text-rendering:geometricPrecision; image-rendering:optimizeQuality; fill-rule:evenodd; clip-rule:evenodd"
viewBox="0 0 9144 16256"
 xmlns:xlink="http://www.w3.org/1999/xlink">
 <defs>
  <style type="text/css">
   <![CDATA[
    .fil0 {fill:#1A1A1A}
   ]]>
  </style>
 </defs>
 <g id="Camada_x0020_1">
  <metadata id="CorelCorpID_0Corel-Layer"/>
  <path class="fil0" d="M63261 19513c0,514 -421,932 -940,932 -165,0 -319,-42 -454,-116l-520 165 169 -500c-85,-141 -134,-305 -134,-481 0,-516 420,-933 939,-933 519,0 940,417 940,933zm-940 -784c-435,0 -790,351 -790,784 0,171 56,330 151,459l-99 291 304 -96c124,82 274,129 434,129 436,0 790,-351 790,-783 0,-433 -354,-784 -790,-784zm475 998c-6,-9 -21,-15 -44,-26 -23,-12 -137,-67 -158,-75 -21,-7 -36,-11 -52,12 -15,23 -59,74 -73,89 -13,16 -26,17 -49,6 -24,-11 -98,-36 -186,-113 -68,-61 -114,-136 -128,-159 -13,-23 -1,-35 10,-46 11,-11 23,-27 35,-40 11,-14 15,-23 23,-39 7,-15 4,-28 -2,-40 -6,-11 -52,-123 -71,-169 -19,-46 -39,-38 -52,-38 -13,0 -29,-2 -44,-2 -16,0 -40,6 -62,28 -21,23 -80,79 -80,191 0,112 82,221 94,236 11,16 159,254 393,345 235,92 235,61 277,58 42,-4 136,-56 155,-109 20,-53 20,-99 14,-109z"/>
 </g>
</svg>
